<?xml version="1.0" encoding="UTF-8"?>
<!-- Created with Inkscape (http://www.inkscape.org/) -->
<svg width="48" height="48" version="1.1" viewBox="0 0 12.7 12.7" xmlns="http://www.w3.org/2000/svg" xmlns:xlink="http://www.w3.org/1999/xlink">
 <defs>
  <linearGradient id="linearGradient1289" x1="47.798" x2="85.961" y1="103.74" y2="103.74" gradientTransform="translate(9.5281e-7)" gradientUnits="userSpaceOnUse">
   <stop stop-color="#d2cfd4" offset="0"/>
   <stop stop-color="#878588" stop-opacity=".40784" offset="1"/>
  </linearGradient>
  <linearGradient id="linearGradient24984" x1="82.795" x2="158.94" y1="107.08" y2="107.08" gradientTransform="translate(9.5281e-7)" gradientUnits="userSpaceOnUse">
   <stop stop-color="#d2cfd4" offset="0"/>
   <stop stop-color="#d5d2d7" stop-opacity=".61789" offset="1"/>
  </linearGradient>
  <linearGradient id="linearGradient31284" x1=".63738" x2="12.075" y1="6.3541" y2="6.3541" gradientUnits="userSpaceOnUse">
   <stop stop-color="#ed5f26" offset="0"/>
   <stop stop-color="#ffa250" offset="1"/>
  </linearGradient>
 </defs>
 <g>
  <path d="m5.3361 1.9302c0.084736 0.00474 0.16949 0.00949 0.27941 0.010674 0.10992 0.00118 0.24502-0.00119 0.39968-0.00238s0.32887-0.00119 0.51316 0.0083 0.37864 0.028464 0.60145 0.087767 0.47404 0.15892 0.7087 0.25855c0.23465 0.099623 0.45271 0.19924 0.70159 0.33919 0.24888 0.13995 0.52856 0.32021 0.7324 0.46728s0.33183 0.26091 0.49538 0.42695c0.16355 0.16604 0.36264 0.38425 0.52619 0.60722 0.16354 0.22297 0.29153 0.45067 0.4053 0.68075s0.21332 0.46253 0.26546 0.74716 0.05688 0.62144 0.02606 0.89896c-0.03082 0.27752-0.09718 0.49573-0.17777 0.67362-0.08059 0.17789-0.1754 0.31546-0.33657 0.46727-0.16117 0.15181-0.38871 0.31784-0.63521 0.46016-0.2465 0.14232-0.51196 0.26091-0.77032 0.41509-0.25836 0.15418-0.5096 0.34393-0.73714 0.52183s-0.43138 0.34393-0.63759 0.52657c-0.20621 0.18264-0.41479 0.38188-0.59967 0.58587-0.18488 0.20399-0.34605 0.41272-0.49301 0.62382-0.14696 0.21111-0.27969 0.42458-0.36502 0.58113s-0.12325 0.25617-0.16592 0.3724c-0.042665 0.11623-0.090068 0.24905-0.11614 0.37951-0.026071 0.13046-0.030811 0.25854 0.00475 0.34868 0.035566 0.09013 0.11141 0.14231 0.17303 0.05929 0.061613-0.08302 0.10902-0.30123 0.17538-0.51708 0.066367-0.21585 0.15169-0.42932 0.25598-0.63094 0.10429-0.20162 0.22754-0.39137 0.34368-0.54792 0.11614-0.15655 0.22517-0.27989 0.33657-0.41509 0.11141-0.1352 0.22518-0.28226 0.37924-0.44829 0.15407-0.16604 0.34842-0.35105 0.53805-0.51234 0.18962-0.16129 0.3745-0.29886 0.56412-0.43169 0.18962-0.13283 0.38398-0.26091 0.55938-0.37239s0.33183-0.20636 0.52145-0.31547c0.18962-0.10911 0.41242-0.23245 0.58781-0.34156 0.1754-0.10911 0.30339-0.20398 0.41716-0.31784 0.11377-0.11385 0.21332-0.24668 0.28916-0.35579 0.07585-0.10911 0.12799-0.1945 0.17066-0.32732 0.04267-0.13283 0.07585-0.31309 0.09955-0.46964s0.03792-0.28937 0.02607-0.46964c-0.011846-0.18027-0.049769-0.40797-0.10191-0.60247s-0.1185-0.35579-0.19057-0.50537c-0.072062-0.14958-0.14982-0.28743-0.22107-0.40661-0.071252-0.11918-0.13599-0.21966-0.23221-0.3476-0.096223-0.12794-0.22392-0.28334-0.36837-0.43694-0.14444-0.1536-0.30561-0.3054-0.48101-0.45247-0.1754-0.14706-0.36501-0.28938-0.54041-0.40323s-0.33657-0.19924-0.50249-0.28938c-0.16592-0.090134-0.33657-0.18501-0.50723-0.25854-0.17066-0.073534-0.34131-0.12572-0.50012-0.17315s-0.30576-0.090133-0.4622-0.12571-0.32235-0.064044-0.49982-0.080353c-0.17747-0.016309-0.36649-0.02046-0.54426-0.026686-0.17777-0.0062261-0.34428-0.014528-0.46072-0.015419-0.11644-8.909e-4 -0.1828 0.0056319-0.24769-0.0011827-0.064883-0.0068146-0.12831-0.026984-0.19171-0.047145l-0.010666 0.099621z" fill="url(#linearGradient24984)"/>
  <path d="m3.136 2.5968c-0.026067-0.052169-0.10665-0.1423-0.22043-0.27513-0.11377-0.13283-0.26072-0.30835-0.36976-0.43644s-0.18014-0.20873-0.25124-0.26092c-0.071105-0.05219-0.14221-0.075909-0.13511-0.10438 0.0071-0.02847 0.092431-0.061676 0.20621-0.087767 0.11378-0.026091 0.25599-0.045066 0.40295-0.040318 0.14696 0.00475 0.29865 0.03321 0.44561 0.066419 0.14696 0.033209 0.28917 0.071159 0.42664 0.12809 0.13747 0.056931 0.2702 0.13283 0.35316 0.1779 0.082959 0.045065 0.11614 0.059296 0.11139 0.028468-0.0047463-0.03083-0.04741-0.10673-0.13748-0.20636-0.090066-0.099625-0.22754-0.22296-0.33894-0.2965s-0.19673-0.097256-0.24414-0.11859c-0.047411-0.021339-0.056892-0.040314 0.014221-0.045069 0.071113-0.00476 0.22281 0.00473 0.35317 0.018965 0.13036 0.014233 0.23939 0.033209 0.36502 0.073536 0.12562 0.040327 0.26784 0.102 0.38872 0.17316 0.12088 0.071163 0.22044 0.15181 0.33176 0.23494 0.11133 0.083124 0.23445 0.16874 0.32191 0.22033 0.087461 0.05159 0.13922 0.069145 0.22999 0.074961 0.090771 0.00582 0.22037-1.12e-4 0.37113-0.00664 0.15076-0.00652 0.32259-0.013639 0.48081-0.012452 0.15822 0.00119 0.3028 0.010675 0.4462 0.020162 0.1434 0.00949 0.28561 0.018975 0.43159 0.043117s0.2957 0.06293 0.4534 0.10772c0.1577 0.044793 0.32334 0.095584 0.49331 0.16061 0.16997 0.065028 0.34423 0.14428 0.48282 0.21335 0.13859 0.069064 0.24149 0.12793 0.3522 0.19057 0.11071 0.062641 0.22922 0.12905 0.36432 0.21682 0.1351 0.087764 0.2868 0.19687 0.42427 0.30836s0.26072 0.22533 0.38635 0.34393c0.12562 0.1186 0.25361 0.24194 0.37449 0.38188s0.23465 0.29649 0.32946 0.43881c0.09481 0.14232 0.17065 0.2704 0.24176 0.41035 0.07111 0.13995 0.13747 0.29175 0.18962 0.43406 0.05214 0.14232 0.09007 0.27514 0.11614 0.37951 0.02607 0.10437 0.04029 0.18027 0.04977 0.29649 0.0095 0.11623 0.01422 0.27277 0.0071 0.42932-0.0071 0.15655-0.02607 0.31309-0.06163 0.4649-0.03555 0.1518-0.0877 0.29886-0.17302 0.44117-0.08533 0.14231-0.20384 0.27988-0.31287 0.39136-0.10903 0.11148-0.20858 0.19687-0.32946 0.27751-0.12088 0.080645-0.26309 0.15655-0.40531 0.23719-0.14221 0.080651-0.28442 0.16604-0.43137 0.26092s-0.29865 0.19924-0.4859 0.32733c-0.18725 0.12809-0.41005 0.27989-0.60678 0.41983-0.19673 0.13995-0.36738 0.26803-0.51671 0.39849-0.14933 0.13046-0.27732 0.26329-0.42427 0.42695-0.14696 0.16367-0.31287 0.35816-0.42427 0.48625s-0.16829 0.18976-0.24651 0.29887c-0.07822 0.10911-0.17777 0.26566-0.2465 0.3629-0.068734 0.09725-0.10666 0.1352-0.16118 0.2372-0.054519 0.102-0.12562 0.26803-0.17777 0.40798-0.052145 0.13995-0.085328 0.2538-0.11377 0.3463-0.028443 0.0925-0.052145 0.16366-0.073469 0.19449-0.021325 0.030832-0.040272 0.021352-0.12323-0.059291-0.082962-0.080644-0.22991-0.23244-0.37924-0.39848s-0.30102-0.3463-0.41479-0.50285c-0.11377-0.15655-0.18962-0.28937-0.26073-0.43406-0.071109-0.14469-0.13747-0.30124-0.18962-0.45304-0.052148-0.1518-0.090071-0.29886-0.12089-0.47913-0.030815-0.18027-0.054517-0.39374-0.063999-0.59299s-0.0047421-0.38425 0.0071085-0.56452c0.011851-0.18027 0.030812-0.35579 0.082957-0.54081s0.13747-0.37951 0.2228-0.5669 0.17066-0.36765 0.2868-0.54081 0.2631-0.33919 0.36976-0.50285 0.17302-0.32495 0.22517-0.46252c0.052145-0.13757 0.090068-0.25142 0.10666-0.41271 0.016594-0.16129 0.011854-0.37002 1.43e-5 -0.47676-0.011839-0.10674-0.030801-0.11149-0.047406-0.068787-0.016605 0.042701-0.030826 0.13283-0.05453 0.23483-0.023703 0.10199-0.056886 0.21584-0.09481 0.31546-0.037924 0.099619-0.080587 0.18501-0.15644 0.31072-0.075848 0.12571-0.18488 0.29174-0.29391 0.44829-0.10903 0.15655-0.21806 0.30361-0.31287 0.45779-0.094811 0.15418-0.1754 0.31547-0.24887 0.49574s-0.13984 0.37951-0.18725 0.58113-0.075846 0.4056-0.097178 0.57638c-0.021332 0.17078-0.035553 0.30835-0.045033 0.49099s-0.01422 0.41034 0.00237 0.63094c0.016594 0.22059 0.054517 0.43406 0.128 0.67126 0.073481 0.2372 0.18251 0.4981 0.29391 0.72818s0.22517 0.42932 0.33658 0.58587 0.22043 0.2704 0.3508 0.39374c0.13036 0.12334 0.28206 0.25617 0.40294 0.35342 0.12088 0.09725 0.21095 0.15892 0.25834 0.17789 0.047391 0.01897 0.052132-0.0047 0.085315-0.13758 0.033183-0.13283 0.094808-0.37476 0.19436-0.61671 0.099555-0.24194 0.23702-0.48388 0.37213-0.69973 0.1351-0.21585 0.26784-0.4056 0.41479-0.58824 0.14696-0.18264 0.30813-0.35816 0.49775-0.55504 0.18962-0.19687 0.40768-0.41509 0.61389-0.59536 0.20621-0.18027 0.40057-0.32258 0.61626-0.47676 0.21569-0.15418 0.45271-0.32021 0.68026-0.46253 0.22755-0.14232 0.4456-0.26091 0.64233-0.36291s0.37212-0.18738 0.53093-0.28463c0.1588-0.09725 0.30102-0.20636 0.45271-0.35342 0.15169-0.14706 0.31287-0.33207 0.42427-0.49573s0.17302-0.30597 0.22754-0.44118c0.05452-0.1352 0.10192-0.26328 0.12562-0.41746 0.02371-0.15417 0.02371-0.33444 0.01422-0.52419-0.0095-0.18976-0.02844-0.38899-0.0711-0.58112-0.042662-0.19213-0.10902-0.37714-0.19672-0.58587-0.087697-0.20873-0.19673-0.44118-0.29627-0.62145s-0.18962-0.30835-0.31998-0.46965-0.30102-0.35579-0.49775-0.55978c-0.19673-0.20399-0.41953-0.41746-0.65892-0.60247s-0.49537-0.34156-0.73951-0.47676c-0.24414-0.1352-0.47641-0.24905-0.69922-0.34868-0.2228-0.099623-0.43612-0.18501-0.68737-0.25854-0.25125-0.073533-0.54041-0.1352-0.79166-0.17078-0.25125-0.035581-0.46456-0.045069-0.68026-0.047442s-0.43375 0.0023712-0.63996 0.01423-0.40057 0.030834-0.52382 0.047437-0.1754 0.030834-0.21569 0.026101c-0.04029-0.0047327-0.068732-0.028451-0.13984-0.1091s-0.18488-0.21822-0.32946-0.34156c-0.14458-0.12335-0.31998-0.23245-0.45745-0.30599-0.13747-0.073533-0.23702-0.11148-0.35554-0.13995-0.11851-0.028467-0.25598-0.047442-0.38161-0.056931-0.12562-0.0094894-0.23939-0.0094894-0.23939 0.02847 2.7e-6 0.03796 0.11377 0.11386 0.2228 0.19688 0.10903 0.08302 0.21332 0.17315 0.28916 0.24906 0.075846 0.075905 0.12325 0.13757 0.13983 0.18975 0.01658 0.052178 0.00236 0.094872-0.052143 0.083014-0.054502-0.011858-0.14931-0.078271-0.23227-0.12808-0.082958-0.049814-0.15406-0.08302-0.27021-0.12809-0.11614-0.045069-0.27732-0.10199-0.45034-0.14232-0.17303-0.040326-0.3579-0.064045-0.53093-0.071163-0.17303-0.007118-0.3342 0.00237-0.44798 0.023716-0.11378 0.021346-0.18014 0.054553-0.21333 0.080657-0.033187 0.026104-0.033187 0.045079 0.014229 0.097262 0.047416 0.052183 0.14222 0.13757 0.23229 0.21585 0.09007 0.078274 0.1754 0.14943 0.25361 0.22534 0.078217 0.075904 0.14932 0.15655 0.21569 0.23008 0.066367 0.07353 0.12799 0.13994 0.15643 0.17314 0.028443 0.033196 0.023703 0.033196-0.018964 0.040311-0.042667 0.00711-0.12325 0.021346-0.18489 0.042693-0.061632 0.021348-0.1043 0.04981-0.10428 0.07591s0.042673 0.049819 0.090078 0.083029c0.047404 0.03321 0.099548 0.075904 0.14695 0.12097 0.047404 0.045069 0.090067 0.092507 0.090067 0.11621 1e-7 0.023708-0.042663 0.023708-0.11378 0.045054-0.071114 0.021346-0.17066 0.06404-0.26785 0.14706-0.097187 0.083023-0.19199 0.20636-0.27258 0.32733-0.080589 0.12097-0.14695 0.23957-0.19199 0.33208-0.045035 0.092509-0.068736 0.15892-0.092438 0.27041-0.023702 0.11149-0.047403 0.26803-0.059253 0.45542-0.01185 0.18739-0.01185 0.4056-0.00948 0.62382s0.00711 0.43643-0.00474 0.62382c-0.011853 0.18738-0.040295 0.34393-0.068738 0.50996-0.028446 0.16604-0.056888 0.34156-0.10192 0.51708-0.045036 0.17552-0.10666 0.35104-0.17303 0.52182-0.066367 0.17078-0.13747 0.33681-0.20858 0.52657-0.071107 0.18976-0.14221 0.40323-0.19436 0.55978-0.052146 0.15655-0.085328 0.25617-0.094805 0.36291-0.009477 0.10674 0.004744 0.22059 0.059271 0.30598 0.054527 0.085386 0.14933 0.14231 0.24414 0.18026 0.09481 0.037946 0.18962 0.056921 0.28443 0.073524 0.09481 0.016603 0.18962 0.030834 0.23464 0.026101 0.045025-0.00473 0.040285-0.028453 0.016591-0.056919-0.023693-0.028467-0.066357-0.061674-0.097178-0.11385-0.030822-0.05218-0.049783-0.12334-0.047418-0.21348 0.0023654-0.090139 0.026067-0.19925 0.063991-0.32971 0.037924-0.13046 0.090068-0.28226 0.15169-0.43644 0.061627-0.15418 0.13273-0.31072 0.19673-0.47676 0.063997-0.16604 0.12088-0.34156 0.17066-0.51708s0.092439-0.35104 0.11614-0.50759c0.023704-0.15655 0.028444-0.29412 0.033184-0.47439 0.00474-0.18027 0.00948-0.40323 0.011851-0.62382 0.00237-0.22059 0.00237-0.43881 0.021331-0.60722 0.01896-0.16841 0.056883-0.28701 0.10192-0.40324 0.045035-0.11623 0.097179-0.23008 0.16592-0.33445 0.068739-0.10437 0.15407-0.19925 0.24888-0.27515 0.094814-0.075905 0.1991-0.13283 0.28207-0.16604 0.082964-0.033206 0.14459-0.042694 0.18962-0.054554 0.04503-0.011861 0.073473-0.026092 0.047406-0.078262z" fill="url(#linearGradient31284)" fill-rule="evenodd"/>
  <path d="m5.4943 5.3245c-0.033196 0.0427-0.066379 0.12809-0.1446 0.23008-0.078216 0.10199-0.20147 0.22058-0.31523 0.30834-0.11377 0.08776-0.21806 0.14469-0.35553 0.22533s-0.30813 0.18501-0.49301 0.30124c-0.18488 0.11623-0.38398 0.24431-0.53804 0.34867s-0.26309 0.18501-0.34843 0.25617c-0.085331 0.07116-0.14696 0.13283-0.19436 0.20399-0.047407 0.071164-0.08059 0.15181-0.085323 0.22297-0.00473 0.071166 0.018969 0.13284 0.03793 0.18265 0.018962 0.049811 0.033183 0.087762 0.035547 0.15417 0.00236 0.066412-0.00712 0.16129-0.00711 0.23956 2.8e-6 0.078277 0.00948 0.13995-0.021328 0.18974-0.030812 0.049797-0.10192 0.087748-0.18488 0.13044-0.082959 0.042695-0.17777 0.090133-0.24176 0.12334-0.063997 0.033207-0.097179 0.052182-0.071098 0.066417s0.11141 0.023723 0.20621 0.00949c0.094805-0.014235 0.19909-0.052186 0.2939-0.090137 0.094809-0.037951 0.18014-0.075902 0.24887-0.1352 0.068731-0.059294 0.12087-0.13994 0.14695-0.22769 0.026074-0.087755 0.026074-0.18263 0.016596-0.26802-0.00948-0.085388-0.028439-0.16129-0.037923-0.23245-0.00948-0.07116-0.00948-0.13757 0.016587-0.21823 0.026069-0.080656 0.078213-0.17553 0.15881-0.26093s0.18962-0.1613 0.30102-0.23483c0.1114-0.073531 0.22517-0.14469 0.38398-0.23957s0.36264-0.21347 0.53804-0.32258c0.1754-0.10911 0.32235-0.20873 0.42426-0.30597 0.10192-0.097246 0.1588-0.19212 0.20146-0.27988 0.042664-0.08776 0.071106-0.1684 0.090069-0.23719 0.018963-0.068784 0.028444-0.12571 0.016604-0.15418-0.01184-0.028472-0.045022-0.028472-0.078218 0.014229z" fill="url(#linearGradient1289)"/>
 </g>
</svg>
