<?xml version="1.0" encoding="UTF-8"?>
<!-- Created with Inkscape (http://www.inkscape.org/) -->
<svg width="136.75mm" height="171.28mm" version="1.1" viewBox="0 0 136.75 171.28" xmlns="http://www.w3.org/2000/svg" xmlns:xlink="http://www.w3.org/1999/xlink">
 <defs>
  <filter id="filter51544" x="-.070523" y="-.070523" width="1.141" height="1.141" color-interpolation-filters="sRGB">
   <feGaussianBlur stdDeviation="0.1993007"/>
  </filter>
  <filter id="filter51544-4" x="-.070523" y="-.070523" width="1.141" height="1.141" color-interpolation-filters="sRGB">
   <feGaussianBlur stdDeviation="0.1993007"/>
  </filter>
  <filter id="filter51544-2" x="-.070523" y="-.070523" width="1.141" height="1.141" color-interpolation-filters="sRGB">
   <feGaussianBlur stdDeviation="0.1993007"/>
  </filter>
  <filter id="filter51544-8" x="-.070523" y="-.070523" width="1.141" height="1.141" color-interpolation-filters="sRGB">
   <feGaussianBlur stdDeviation="0.1993007"/>
  </filter>
  <filter id="filter51544-48" x="-.070523" y="-.070523" width="1.141" height="1.141" color-interpolation-filters="sRGB">
   <feGaussianBlur stdDeviation="0.1993007"/>
  </filter>
  <filter id="filter51544-9" x="-.070523" y="-.070523" width="1.141" height="1.141" color-interpolation-filters="sRGB">
   <feGaussianBlur stdDeviation="0.1993007"/>
  </filter>
  <linearGradient id="linearGradient54500" x1="92.825" x2="179.09" y1="149.81" y2="149.81" gradientTransform="translate(46.777 64.168)" gradientUnits="userSpaceOnUse">
   <stop stop-color="#ed5f26" offset="0"/>
   <stop stop-color="#ed5f26" stop-opacity="0" offset="1"/>
  </linearGradient>
  <linearGradient id="linearGradient55347" x1="77.189" x2="113.69" y1="191.59" y2="191.59" gradientTransform="translate(46.777 64.168)" gradientUnits="userSpaceOnUse">
   <stop offset="0"/>
   <stop stop-opacity="0" offset="1"/>
  </linearGradient>
 </defs>
 <g transform="translate(-.079479 -.55893)">
  <g transform="translate(-46.697 -63.609)">
   <path d="m55.209 172.67s-0.42597-0.52375-0.62973-0.79303c-0.33577-0.42629-0.61641-0.89082-0.87977-1.3641-0.33882-0.61109-0.61857-1.2512-0.89955-1.8901-0.3265-0.72906-0.55591-1.4936-0.765-2.2627-0.2055-0.77694-0.33512-1.5686-0.40554-2.3682-0.06652-0.86555 0.01516-1.7276 0.1275-2.585 0.11205-0.89633 0.35056-1.7679 0.60286-2.6329 0.30452-0.96759 0.70394-1.903 1.1213-2.8265 0.49307-1.071 1.0435-2.113 1.6136-3.1445 0.64067-1.1486 1.2924-2.2909 1.9284-3.4421 0.63078-1.1623 1.258-2.3266 1.8521-3.5081 0.61959-1.2092 1.1698-2.4502 1.6714-3.7123 0.55189-1.4291 1.035-2.8842 1.4845-4.3483 0.45639-1.5108 0.79615-3.0528 1.0471-4.61 0.26835-1.6963 0.28061-3.4122 0.22103-5.1236-0.09611-1.9456-0.19918-3.8907-0.30872-5.8355-0.13854-2.0924-0.15976-4.188-0.03686-6.2809 0.08367-2.1254 0.66486-4.1274 1.593-6.0261 1.1563-2.0561 2.9655-3.5318 4.8452-4.8908 2.0485-1.4354 4.2174-2.6604 6.534-3.5999 1.9567-0.76052 3.9874-1.3003 5.9694-1.9859 0.93656-0.33505 1.8436-0.7509 2.683-1.2855 0.7342-0.54543-0.0108-0.84878-0.51709-1.1746-1.845-1.1427-3.3482-2.7292-4.8352-4.2883-1.6905-1.7866-3.2985-3.6485-4.8816-5.5301-1.4162-1.6819-2.7938-3.3953-4.1234-5.1463-1.0387-1.3776-1.9932-2.8092-2.6463-4.4101-0.4262-1.3667-0.07865-2.3669 0.83426-3.4113 1.3867-1.2586 3.3282-1.3129 5.1004-1.4945 0.37099-0.02702 0.74156-0.0604 1.113-0.08105 0.37504-0.02085 0.75049-0.03568 1.126-0.04346 0.3815-0.0079 1.5263-0.01008 1.1447-0.0036-1.03 0.01752-2.0616-0.02035-3.0902 0.03666-0.39103 0.02167 0.78234 0.03965 1.1728 0.0696 0.3979 0.03051 0.79466 0.0745 1.192 0.11175 2.5942 0.24028 5.0946 0.98377 7.5706 1.7544 2.3326 0.7112 4.5865 1.6392 6.7884 2.681 1.953 0.97736 3.0011 2.5277 4.1386 4.1165 0.81179 1.5482 1.5145 2.7135 1.5145 2.7135l6.5717 0.05236 4.228 0.0631c1.3265 0.0198-5.5104-2.6689-6.5997-3.46-1.7992-1.2687-3.6299-2.5053-5.6065-3.4854-2.2364-1.0439-4.5263-1.9688-6.892-2.681-2.4501-0.75798-4.9209-1.5113-7.4862-1.7544-3.7074-0.35132-7.4495-0.3211-11.163-0.08991-1.3709 0.13846-2.8745 0.19956-4.1738 0.7056-0.5526 0.21522-0.77424 0.43681-1.2284 0.78894-0.9691 1.0432-1.3036 2.0329-0.78362 3.4113 0.74297 1.5994 1.7696 3.0272 2.8578 4.4101 1.3674 1.7393 2.7495 3.4676 4.1911 5.1463 1.6227 1.8724 3.2749 3.7188 4.9657 5.5301 1.3843 1.4748 2.7342 3.0034 4.3019 4.2883 0.42472 0.35041 0.95074 0.65982 0.4262 1.1746-0.72552 0.54474-1.5598 0.92396-2.3874 1.2855-1.8717 0.73993-3.8281 1.2373-5.6977 1.9859-2.3035 0.94153-4.4436 2.1861-6.4914 3.5999-1.919 1.3632-3.7876 2.819-4.991 4.8908-0.93237 1.8962-1.4966 3.9022-1.5734 6.0261-0.12016 2.0932-0.13216 4.1868-0.0045 6.2809 0.07856 1.9456 0.20162 3.8891 0.25775 5.8355 0.01545 1.7124-0.02848 3.4297-0.30538 5.1236-0.26387 1.5559-0.58653 3.1037-1.0633 4.61-0.45409 1.4664-0.92298 2.9305-1.5149 4.3483-0.53526 1.2541-1.0958 2.4975-1.7159 3.7123-0.6063 1.1736-1.2011 2.3534-1.843 3.5081-0.64845 1.1488-1.2911 2.301-1.9532 3.4421-0.58953 1.0316-1.1617 2.0738-1.6777 3.1445-0.42852 0.92474-0.83895 1.8596-1.1643 2.8265-0.27191 0.86043-0.49961 1.7368-0.61853 2.6329-0.1111 0.85746-0.21092 1.7187-0.1478 2.585 0.0531 0.80196 0.19396 1.5915 0.40183 2.3682 0.2084 0.76622 0.43365 1.5282 0.73846 2.2627 0.2731 0.637 0.54435 1.2762 0.86702 1.8901 0.24733 0.46663 0.49281 0.93732 0.80607 1.3641 0.18791 0.2693 11.31 1.3546 11.519 1.6082z" fill="#dcd1cc"/>
   <circle cx="102.09" cy="81.032" r=".059435" stroke="#000" stroke-width=".26458"/>
   <circle cx="102.09" cy="81.032" r=".059435" stroke="#000" stroke-width=".26458"/>
   <path d="m102.67 81.605c-0.25612-0.42169-0.55181-0.81656-0.84187-1.215-0.6211-0.81284-1.2173-1.6423-1.7881-2.4913-0.65192-0.9967-1.2724-2.0135-1.7793-3.0921-0.3822-0.91251-0.55312-1.8883-0.66859-2.865-0.11524-0.79416-0.0038-1.5613 0.3096-2.2943 0.44682-0.69323 1.1806-1.0879 1.8959-1.4514 0.91681-0.45155 1.8878-0.76993 2.8705-1.0414 1.8743-0.60527 6.7036-0.45872-1.3083-0.39631 1.2722 0.07736 2.4395 0.55301 3.5697 1.1059 1.2637 0.67613 2.4089 1.546 3.5316 2.4305 1.0812 0.86861 2.1226 1.7857 3.147 2.7202 0.91531 0.85542 1.8178 1.7247 2.7041 2.6101 0.84249 0.84606 1.6519 1.7249 2.4426 2.6194 0.82455 0.95672 1.6256 1.9332 2.4226 2.9128 0.88148 1.1015 1.8109 2.1625 2.7505 3.2144 1.1826 1.365 2.5427 2.5535 3.8925 3.7472 1.7654 1.4895 3.6588 2.8189 5.552 4.139 1.9777 1.3708 3.9985 2.6777 6.0107 3.997 2.2224 1.4418 4.4115 2.9332 6.5768 4.4592 2.4524 1.737 4.8029 3.6112 7.1025 5.5443 2.4945 2.1074 4.7644 4.455 6.9596 6.8669 2.4947 2.7148 4.531 5.7911 6.4896 8.9013 2.122 3.3053 3.8522 6.833 5.4935 10.394 1.5964 3.4734 2.9277 7.0591 3.9622 10.738 0.96246 3.5338 1.2942 7.0092 1.2433 10.657-0.0803 3.5378-0.83292 6.9878-1.8445 10.362-0.97934 3.3956-2.6592 6.4899-4.5947 9.4228-2.0046 2.8581-4.3824 5.4251-6.8322 7.9021-2.2692 2.2555-4.6687 4.3733-7.1716 6.3646-2.4577 1.919-5.0913 3.5921-7.7556 5.2055-2.6745 1.6316-5.4778 3.0341-8.2891 4.4107-2.9916 1.4532-5.9801 2.9122-8.9172 4.4731-2.9705 1.5934-5.7287 3.5294-8.4174 5.5523-2.5782 2.0045-4.9053 4.3016-7.1199 6.6947-2.0762 2.2696-3.8834 4.7546-5.4974 7.3677-1.3923 2.4698-2.5196 5.0738-3.498 7.7311-0.43325 1.2001-0.79767 2.4229-1.1646 3.6443h4.198c0.3431-1.2215 0.68103-2.4453 1.0983-3.6443 0.93654-2.6585 2.0166-5.2718 3.4035-7.7311 1.5916-2.6101 3.3658-5.1036 5.4279-7.3677 2.1975-2.3949 4.5025-4.6999 7.0764-6.6947 2.6798-2.0338 5.435-3.9731 8.4132-5.5523 2.944-1.571 5.9414-3.0356 8.9527-4.4731 2.8312-1.3729 5.6522-2.7781 8.3448-4.4107 2.6506-1.6212 5.2743-3.2984 7.731-5.2055 2.4974-1.9658 4.8482-4.1099 7.0881-6.3646 2.4244-2.487 4.776-5.0604 6.7837-7.9021 1.9449-2.9248 3.6301-6.0249 4.5958-9.4228 1.001-3.4074 1.7836-6.7886 1.8491-10.362 0.0122-1.496 0.0465-2.0302-0.0618-3.527-0.17449-2.4114-0.65754-4.7896-1.2488-7.1297-1.0481-3.6844-2.4377-7.2578-4.0383-10.738-1.6391-3.5531-3.3488-7.0885-5.4529-10.394-1.9356-3.0851-3.8896-6.1832-6.3315-8.9013-2.1704-2.409-4.4168-4.754-6.8815-6.8669-2.2539-1.9491-4.6071-3.7784-7.0069-5.5443-2.1147-1.5399-4.2783-3.0118-6.4572-4.4592-2.0032-1.3234-4.019-2.6285-5.992-3.997-1.8672-1.2998-3.7248-2.6215-5.4243-4.139-1.3168-1.1809-2.5938-2.4036-3.7478-3.7472-0.90695-1.0562-1.796-2.1275-2.666-3.2144-0.7926-0.97715-1.586-1.9537-2.4005-2.9128-0.78211-0.90401-1.5979-1.778-2.4473-2.6194-0.89444-0.88869-1.8066-1.7597-2.7376-2.6101-1.0406-0.93043-2.0948-1.8469-3.1841-2.7202-1.1133-0.88041-2.2521-1.7407-3.496-2.4305-1.1109-0.55303-2.2562-1.0318-3.5124-1.1059-2.739-0.01659-5.3379-0.31364-7.9632 0.39631-0.99934 0.2708-1.9861 0.59327-2.9218 1.0414-0.73721 0.36098-1.5015 0.74726-1.968 1.4514-0.29331 0.73943-0.38579 1.505-0.24741 2.2943 0.14246 0.97834 0.33134 1.9585 0.74146 2.865 0.53257 1.0692 1.1647 2.0825 1.8017 3.0921 0.53449 0.83201 1.0869 1.6524 1.6106 2.4913 0.25477 0.39968 0.5089 0.80025 0.73871 1.215h4.894z" fill="none" opacity=".4697" stroke="url(#linearGradient54500)" stroke-width="5" style="mix-blend-mode:normal;paint-order:fill markers stroke"/>
   <path d="m66.137 173.49c0.4505 0.0119 0.89947-0.0141 1.3486-0.0449 0.74231-0.0585 1.4591-0.26185 2.1642-0.49002 0.78899-0.28263 1.5124-0.71373 2.2235-1.1508 0.75559-0.4939 1.4023-1.1297 2.0035-1.7978 0.6525-0.73476 1.262-1.5021 1.8155-2.3138 0.62706-0.99373 1.2207-2.007 1.7971-3.0307 0.59511-1.0446 1.1426-2.1149 1.6906-3.1846 0.55651-1.1587 1.2076-2.2622 1.9818-3.2876 1.009-1.2548 2.2625-2.2664 3.5214-3.2557 1.3892-1.1475 2.9308-2.0591 4.5257-2.8843 1.7408-0.86988 3.5834-1.51 5.4301-2.1124 1.7142-0.57953 3.4797-0.96682 5.2632-1.2555 1.4217-0.21137 7.2691-0.0421 8.7005-0.16851l-8.893-0.31552c-1.41 0.12724-2.8186 0.27471-4.2192 0.48403-1.7779 0.28723-3.5389 0.66752-5.2448 1.2555-1.839 0.61054-3.6738 1.258-5.416 2.1124-1.6148 0.82841-3.1921 1.7171-4.5926 2.8843-1.2803 0.99895-2.5646 2.0066-3.6155 3.2557-0.81354 1.0118-1.4878 2.1173-2.0514 3.2876-0.55064 1.0676-1.0959 2.1385-1.6869 3.1846-0.58781 1.0274-1.1782 2.056-1.8511 3.0307-0.57582 0.80148-1.1906 1.573-1.843 2.3138-0.61668 0.66694-1.2768 1.302-2.0423 1.7978-0.71607 0.44024-1.4439 0.87594-2.2425 1.1508-0.72004 0.23202-1.4526 0.43466-2.2107 0.49002-0.48789 0.0318-0.97572 0.0562-1.4649 0.0449z" fill="#d2cfd4"/>
   <circle cx="108.16" cy="151.71" r=".059435" stroke="#000" stroke-width=".26458"/>
   <circle cx="108.16" cy="151.71" r=".059435" stroke="#000" stroke-width=".26458"/>
   <path d="m103.02 149.93c-8e-3 0.45474-0.0466 0.90766-0.11084 1.356-0.0991 0.68714-0.27295 1.3528-0.46935 2.0092-0.23558 0.80597-0.56985 1.5623-0.93818 2.2948-0.51344 0.98138-1.1736 1.8354-1.8546 2.6597-0.84504 1.0426-1.8235 1.9097-2.8156 2.7494-1.1526 0.94019-2.3014 1.8865-3.437 2.8545-1.2322 1.0377-2.3601 2.2197-3.4648 3.433-1.2235 1.3723-2.3266 2.8773-3.3529 4.4516-1.1661 1.8441-2.1199 3.8419-2.943 5.9176-0.91203 2.4519-1.4232 5.0558-1.8112 7.6785-0.44771 3.0434-0.20517 6.1084 0.15538 9.1413 0.41549 2.8384 1.0097 5.6666 1.9532 8.3351 0.20276 0.57349 0.44054 1.1293 0.66081 1.6939 1.4526 3.3669 3.1934 6.5545 5.0623 9.6246 1.8602 3.07 3.9901 5.8924 6.1752 8.6485 2.1113 2.612 3.8183 4.9095 5.9738 7.4718 0.96763 1.144 2.3903 2.5456 3.3678 3.6781h3.4413s-2.0052-2.2647-2.9967-3.4104c-2.1983-2.5542-4.3951-5.1116-6.529-7.7395-2.1734-2.7612-4.2906-5.588-6.1536-8.6485-1.8601-3.0755-3.6582-6.223-5.0561-9.6246-1.1854-3.2119-2.0892-6.5542-2.5018-10.029-0.32709-3.0415-0.47498-6.1035-0.0044-9.1413 0.39297-2.6317 0.94019-5.2394 1.8975-7.6785 0.86242-2.0728 1.8393-4.0832 3.0414-5.9176 1.0547-1.5686 2.1724-3.0827 3.4177-4.4516 1.1179-1.2173 2.2742-2.3838 3.5128-3.433 1.143-0.97144 2.3061-1.9099 3.4654-2.8545 1.0167-0.84407 2.0344-1.6951 2.9027-2.7494 0.7052-0.82682 1.3877-1.6852 1.9431-2.6597 0.39183-0.72687 0.74766-1.4799 0.98859-2.2948 0.20591-0.65812 0.40339-1.3214 0.52484-2.0092 0.0764-0.44983 0.14641-0.90073 0.19451-1.356h-4.2391z" fill="none" stroke="url(#linearGradient55347)" stroke-width="2.7948"/>
   <g fill="#d2cfd4" stroke-width=".26458">
    <circle cx="132.08" cy="80.319" r="3.3912" filter="url(#filter51544)"/>
    <circle cx="142.79" cy="88.172" r="3.3912" filter="url(#filter51544-4)"/>
    <circle cx="153.14" cy="96.025" r="3.3912" filter="url(#filter51544-2)"/>
    <circle cx="164.21" cy="104.59" r="3.3912" filter="url(#filter51544-8)"/>
    <circle cx="173.49" cy="114.94" r="3.3912" filter="url(#filter51544-48)"/>
    <circle cx="179.56" cy="126.72" r="3.3912" filter="url(#filter51544-9)"/>
   </g>
  </g>
 </g>
</svg>
