<svg version="1.2" xmlns="http://www.w3.org/2000/svg" viewBox="0 0 169 172" width="164" height="167">
	<style>
		.s0 { fill: #ffffff } 
		.s1 { fill: #efe8d2 } 
		.s2 { fill: #203146 } 
		.s3 { fill: #b7944a } 
		.s4 { opacity: 1;fill: #efe8d2 } 
		.s5 { fill: #1f3045 } 
	</style>
	<g id="1758469525675">
		<path id="Layer 2" class="s0" d="m77 31l8-23-13-6-22 14-33 40 13 50 2 40 4 10 7 3h78 5l3-34z"/>
		<path id="Layer 1" class="s1" d="m89 26h-2l-17 14 10 29 14 25 30 6 14-27-15-30-20-17z"/>
		<path id="Path 1" class="s2" d="m65.65 13.25c-1.92 2.34-4.64 6.61-6.07 9.5-1.54 3.14-3.69 5.81-5.33 6.64-1.51 0.76-4.89 3.69-7.5 6.5-2.61 2.81-5.94 7.7-7.4 10.86-2.36 5.1-2.6 6.59-2.12 13.25 0.33 4.6 1.7 10.78 3.56 16 1.66 4.68 4.92 13.45 7.24 19.5 2.32 6.05 4.87 14.6 5.67 19 0.9 4.98 1.23 10.74 0.87 15.25l-0.57 7.25 56.5-0.5c0-11.45-0.45-12.85-3.75-17.84-2.38-3.58-7.87-9.09-15-15.02-6.19-5.15-12.38-10.55-13.75-12-1.38-1.45-2.17-2.97-1.77-3.39 0.4-0.41 1.3-0.21 2 0.45 0.7 0.66 3.52 1.89 6.27 2.74 2.75 0.85 6.91 1.54 9.25 1.55l4.25 0.01c-5.9-5.81-8.22-9.3-8.95-11.5-0.88-2.65-1.11-6.11-0.69-10.25l0.64-6.25c-5.04-2.78-7.85-5.33-9.5-7.47-2.5-3.24-3.06-4.97-3.34-10.46-0.28-5.58 0.02-7.08 2-9.98 1.29-1.87 3.61-4.35 5.17-5.5 2.23-1.65 4.3-2.09 9.75-2.09 3.8 0 6.92-0.34 6.92-0.75 0-0.41-1.91-2.2-4.25-3.98-2.34-1.77-6.39-4.02-9-5-2.61-0.97-6.1-1.77-7.75-1.77-2.65 0-3.03 0.37-3.25 3.17-0.14 1.75-0.81 3.32-1.5 3.5-0.9 0.24-1.38-1.94-1.72-7.67-0.36-6.15-0.81-8-1.94-8-0.81 0-3.03 1.91-4.94 4.25zm-16.15 6.11c-2.75 1.29-7.25 4.36-10 6.83-2.94 2.64-6.52 7.33-8.69 11.4-2.41 4.51-4.14 9.51-4.96 14.41-0.99 5.86-1.01 9.14-0.1 15 0.65 4.13 3.01 13.13 5.25 20 2.24 6.88 4.8 15.43 5.68 19 1 4.03 1.57 10.3 1.49 16.5-0.06 5.5-0.24 10.9-0.39 11.99-0.23 1.67 0.57 2.16 4.96 3 4.05 0.78 5.52 0.72 6.5-0.29 0.86-0.9 1.25-4.81 1.24-12.5-0.02-10.86-0.17-11.62-4.88-24.7-2.67-7.43-6.45-18-8.39-23.5-2.86-8.12-3.54-11.51-3.6-18-0.05-6.53 0.4-9.01 2.46-13.5 1.39-3.03 3.63-7.17 4.98-9.21 1.35-2.04 4.88-5.42 7.84-7.5 3.12-2.2 6.16-5.36 7.24-7.54 1.76-3.53 1.77-3.75 0.12-3.74-0.96 0.01-4 1.06-6.75 2.35zm49.48 50.95c-1.3 1.28-2.28 2.85-2.17 3.5 0.1 0.66 0.98 1.12 1.94 1.04 0.96-0.09 4.22 1.03 7.25 2.49 3.03 1.45 8.43 3.11 12 3.69 3.57 0.57 7.06 0.8 7.75 0.51 0.69-0.3 1.25-1.22 1.25-2.04 0-1.12-1.19-1.5-4.75-1.49-2.61 0.01-7-0.74-9.75-1.66-2.75-0.92-6.01-2.28-7.25-3.01-1.4-0.83-2.13-2.1-1.93-3.34 0.18-1.1-0.19-2-0.83-2-0.63 0-2.21 1.04-3.51 2.31zm-47.87 75.17c-0.88 3.6-2.13 5.34-6.11 8.52l-5 4v14h81v-14c-7.36-5.23-10.04-8.04-10.69-9.62-0.66-1.59-1.34-3.78-1.52-4.88-0.31-1.94-1.19-2.01-28.44-2.27l-28.12-0.26z"/>
		<path id="Shape 1" class="s2" d="m79 27"/>
		<path id="Path 2" class="s3" d="m71.5 0.99c-2.75 0.5-8.6 2.04-13 3.43-4.4 1.39-11.39 4.45-15.52 6.8-4.14 2.36-10.16 6.53-13.38 9.28-3.22 2.75-8.55 8.6-11.84 13-3.29 4.4-7.46 11.15-9.28 15-1.82 3.85-4.34 10.6-5.61 15-1.93 6.69-2.31 10.38-2.33 22.5-0.01 10.82 0.44 16.28 1.8 21.5 0.99 3.85 4.02 11.5 6.72 17 2.98 6.09 7.16 12.6 10.67 16.64 3.17 3.65 8.02 8.49 10.77 10.75 2.75 2.27 5.34 4.12 5.75 4.12 0.41-0.01 1.76-0.91 3-2 1.24-1.1 3.71-3.35 5.5-5 2.54-2.36 3.25-3.83 3.27-6.76 0.01-3.73-0.01-3.75-5.25-4.76-4.42-0.85-5.22-1.33-4.99-3 0.15-1.09 0.33-6.49 0.39-11.99 0.08-6.2-0.49-12.47-1.49-16.5-0.88-3.57-3.44-12.13-5.68-19-2.24-6.88-4.6-15.88-5.25-20-0.91-5.86-0.89-9.14 0.1-15 0.82-4.9 2.55-9.9 4.96-14.41 2.17-4.07 5.75-8.76 8.69-11.4 2.75-2.47 7.25-5.54 10-6.83 2.75-1.29 6.01-2.34 7.25-2.35 1.24-0.01 2.24-0.35 2.23-0.76-0.01-0.41 1.53-2.67 3.43-5.03 1.9-2.35 4.95-4.97 6.77-5.82 1.83-0.85 3.65-1.18 4.06-0.73 0.4 0.46 1.19 3.64 1.75 7.08 0.98 6.05 1.1 6.25 4.01 6.25 1.65 0 5.14 0.8 7.75 1.77 2.61 0.98 6.69 3.34 9.07 5.25 2.38 1.91 4.11 3.93 3.84 4.48-0.26 0.55 0.38 1.56 1.43 2.25 1.05 0.69 2.52 2.49 3.28 4 0.75 1.51 1.96 5.22 2.7 8.25 1.13 4.63 1.95 5.89 5.21 8 2.13 1.38 5.49 3.85 7.46 5.5 1.97 1.65 4.63 5.25 5.91 8 1.28 2.75 2.33 6.57 2.33 8.5-0.01 1.93-0.87 5.3-1.92 7.5-1.06 2.2-3.64 5.19-5.74 6.64-2.1 1.46-5.39 3.15-7.32 3.77-2.07 0.67-8.2 1-15 0.79-6.32-0.18-12.4-0.73-13.5-1.2-1.84-0.8-1.88-0.73-0.5 0.95 0.82 1 5.78 5.34 11 9.65 5.22 4.3 11.18 9.98 13.23 12.61 2.05 2.64 4.42 7.04 5.26 9.79 0.85 2.75 1.53 6.13 1.52 7.5-0.01 1.38-0.63 3.63-1.38 5-0.88 1.62-1.14 3.96-0.75 6.63 0.34 2.28 0.84 4.33 1.12 4.58 0.28 0.24 2.07 1.51 4 2.83 1.93 1.31 4.05 3.08 4.72 3.92 0.67 0.85 1.23 2.33 1.25 3.29 0.02 0.96 0.59 1.76 1.28 1.76 0.69 0.01 3.5-1.4 6.25-3.14 2.75-1.74 7.86-5.91 11.36-9.27 3.5-3.35 8.3-8.8 10.67-12.1 2.36-3.3 5.91-9.37 7.88-13.5 1.97-4.12 4.53-11.55 5.69-16.5 1.73-7.43 2.02-11.26 1.67-22-0.31-9.27-1.07-15.3-2.64-21-1.22-4.4-4.35-12.05-6.96-17-4.36-8.29-4.84-7.65-5.94-10.41-0.83-2.08-1.11-1.19-3.16-4.18-1.84-2.68-2.71-3.09-7.28-7.46-2.91-2.77-7.32-6.43-9.79-8.11-2.47-1.69-7.31-4.48-10.75-6.21-3.44-1.72-10.19-4.28-15-5.68-6.24-1.81-11.9-2.66-19.75-2.95-6.05-0.22-13.25 0-16 0.49z"/>
		<path id="Path 3" class="s4" d="m50.75 49.54c-1.51 0.8-3.2 2.36-3.75 3.46-0.55 1.1-1 3.8-1 6 0 2.95 0.72 4.8 2.75 7.06 1.92 2.14 3.96 3.22 6.75 3.58 2.5 0.32 4.69 0.01 5.84-0.81 1.75-1.27 1.77-1.75 0.29-10.33-0.85-4.95-2.13-9.33-2.84-9.73-0.71-0.41-2.19-0.73-3.29-0.71-1.1 0.01-3.24 0.68-4.75 1.48z"/>
		<path id="Path 4" class="s2" d="m95.85 44.25c-0.75 1.51-0.82 3.4-0.2 5.75 0.7 2.67 1.5 3.57 3.38 3.78 1.36 0.16 3.05-0.29 3.76-1 0.72-0.7 1.28-2.52 1.25-4.03-0.02-1.51-0.49-3.65-1.04-4.75-0.6-1.21-2-2-3.52-2-1.61 0-2.92 0.81-3.63 2.25z"/>
		<path id="Path 5" class="s5" d="m114.55 58c-0.3 0.55-0.33 1.45-0.05 2 0.28 0.55 1.47 1.32 2.57 1.32 1.45 1.07 1.94-0.66 1.95-1.07 0.01-0.41-0.56-1.32-1.25-2.02-0.7-0.69-1.59-1.26-1.97-1.25-0.39 0.01-0.95 0.47-1.25 1.02z"/>
	</g>
</svg>