<svg version="1.2" xmlns="http://www.w3.org/2000/svg" viewBox="0 0 405 522" width="164" height="211">
	<style>
		.s0 { fill: #fdfbfb } 
		.s1 { fill: #f9f9f8 } 
		.s2 { fill: #f0e8d3 } 
		.s3 { fill: #fcfcfc } 
		.s4 { fill: #1b2a43 } 
		.s5 { fill: #bd9d58 } 
	</style>
	<g id="Background">
		<path id="Layer 1" class="s0" d="m104.4 348.44l14.8-32.49-26.43-13.2c0 0-15.23-15.59-19.34-25.33-4.12-9.74-6.5-22.8-6.76-27.28-0.25-4.47 0-4.06 0-4.06 0 0-19.73-7.89-24.19-12.7-4.46-4.8-18.39-16.36-21.15-25.38-2.31-7.58-5.59-12.19-5.64-20.31q-0.02-2.32 0.36-5.08c0.21-1.55 0.48-3.08 0.68-4.6 2.14-15.95 3.89-18.26 9.89-24.84 6.94-7.61 5.6-11.11 17.51-15.94 11.92-4.82 10.09-5.51 21.15-5.07 11.06 0.43 11.63 0 11.63 0l2.12-3.05-22.21-11.17c0 0-25.48-13.21-29.6-21.32-4.12-8.11-5.81-9.46-5.29-14.22 0.52-4.76 8.65-8.68 12.69-9.14 4.04-0.45 12.11-0.92 20.09 0 7.98 0.93 17.16 1.11 26.43 3.05 9.27 1.93 15.86 3.04 15.86 3.04l7.4-11.16c0 0 7.02-12.97 12.69-19.3 5.67-6.33 11.95-12.7 19.03-17.26 7.08-4.56 13.15-7.25 21.15-9.14 8-1.89 21.1-3.02 25.37-3.04 4.27-0.03 14.81 1.01 14.81 1.01l6.34-7.11c0 0 7.98-3.39 11.63-2.03 3.65 1.37 8.84 5.33 8.46 8.13-0.38 2.79 0 7.1 0 7.1l9.52 3.05c0 0 17.74 9.27 23.26 15.23 5.51 5.96 13.02 11.98 14.8 16.25 1.77 4.27 10.62 17.86 11.63 23.35 1.01 5.5 3.46 14.29 3.17 19.29-0.29 5.01-1.73 22.63-3.17 26.41-1.44 3.77-2.12 9.13-2.12 9.13 0 0 11.61 0.18 15.86 1.02 4.26 0.84 15.26 2.65 19.04 5.08 3.78 2.42 15.86 10.93 20.09 17.26 4.22 6.33 7.54 11.77 7.92 17.89 0.38 6.11 1.68 15.49 1.06 24.37-0.52 7.32-1.17 23.01-6.87 27.8-5.7 4.79-13.86 13.05-20.09 15.23-6.23 2.19-22.4 5.81-28.23 6.45-26.75 2.93 1.3 7.77 0.74 15.89-0.98 14.22 2.12 42.65 2.12 42.65 0 0 7.92 3.55 11.63 8.12 3.71 4.58 17.44 21.27 20.09 27.42 2.64 6.15 9.38 20.72 9.51 29.45 0.13 8.72-0.96 24.27-8.46 30.46-7.49 6.19-8.45 9.1-19.03 14.22-10.58 5.12-22.9 9.96-26.43 10.15-3.54 0.19-6.35 0-6.35 0 0 0-0.18 2.25 2.12 6.09 2.3 3.85 16.5 18.58 19.03 24.37 2.53 5.79 4.25 11.43 4.23 15.23-0.02 3.81 3.81 4.74 4.23 7.11 0.42 2.38 0.76 3.69 1.06 6.09 0.29 2.41 0 25.39 0 25.39h-160.72l-1.06-25.39c0 0 0.63-4.47 1.75-8.89 1.12-4.43 3.17-11.17 3.17-11.17 0 0 1.98-3.73 5.29-7.11 3.31-3.38 7.49-11.8 7.49-11.8 0 0 1.04-4.93 3.08-8.51 2.05-3.58 3.17-9.14 3.17-9.14l-9.51-2.03c0 0-11.83-3.18-16.55-6.33-4.72-3.15-20.13-7.89-23.26-12.19-3.13-4.3-13.66-15.01-14.8-21.32-1.15-6.31-4.69-16.52-3.18-23.36 1.52-6.83 5.29-21.32 5.29-21.32z"/>
		<path id="Path 7" class="s1" d="m284.86 261.77c-0.09-1.64-92.59-5.52-102.36-0.25-0.99 0.53-4.93-0.64-8.5-0.95-4.4-0.37-6.02-0.24-5 0.42 1.22 0.79-12.75 1.36-12.66 3.18 0.04 0.66-0.73 57.99-0.99 59.98-6.7 49.56 127.83 67.29 131.66-0.51 0.15-2.63-0.14-24.01-2.15-61.87z"/>
		<path id="Path 2" class="s2" d="m218.04 20.75c1.81 2.32 1.97 3.14 1 5.25-1.1 2.39-1.08 2.41 0.42 0.5 0.91-1.17 1.3-2.83 0.93-4-0.35-1.1-1.14-2.58-1.76-3.29-0.62-0.72-1.49-1.28-1.93-1.25-0.45 0.02 0.16 1.28 1.34 2.79zm-3.49 101.25c-0.3 0.55-1.79 0.74-3.3 0.43-1.79-0.37-1.19 0.16 1.75 1.53 2.47 1.15 4.72 2.07 5 2.04 0.27-0.03-0.29-0.5-1.25-1.03-0.96-0.53-1.75-1.42-1.75-1.97 0-0.55 1.24-0.77 2.75-0.48 2.29 0.42 2.41 0.35 0.75-0.43-1.1-0.52-2.32-0.98-2.7-1.02-0.39-0.04-0.95 0.38-1.25 0.93zm-53.55 195v-51c18.65 0 19 0.08 19.11 2.25 0.06 1.24 0.25 4.05 0.41 6.25 0.16 2.2 0.34 5.91 0.39 8.25l0.09 4.25h28c0.11-5.04 0.11-9.76 0.07-13.75l-0.07-7.25c13.56-0.29 15.25-0.51 12.5-0.67-2.75-0.17-5.54-0.87-6.21-1.57-0.88-0.92-0.97-2.76-0.32-6.76 0.49-3.03 0.53-8.2 0.08-11.5-0.45-3.3-1.57-8.25-2.49-11-0.93-2.75-2.33-6.01-3.12-7.25-0.79-1.24-1.45-2.59-1.47-3-0.02-0.41 1.89-1.65 4.24-2.75 2.35-1.1 7.65-5.38 11.78-9.52 4.49-4.49 8.59-9.73 10.19-13 1.47-3.01 3.39-8.18 4.25-11.48 0.87-3.3 1.56-9.15 1.54-13-0.02-3.85-0.63-9.48-1.35-12.5-0.72-3.03-2.61-8.38-4.21-11.9-2.08-4.57-4.65-8.01-8.98-12-3.34-3.08-8.51-6.8-11.5-8.27-2.99-1.47-7.01-3.16-8.93-3.76-1.93-0.61-6.2-1.29-9.5-1.52-3.3-0.24-8.03-0.05-10.5 0.41-2.48 0.47-6.75 1.61-9.5 2.54-2.75 0.94-7.48 3.08-10.5 4.76-3.03 1.68-7.86 5.46-10.75 8.4l-5.25 5.34c-3.66-7.36-6.92-11.43-9.61-13.78-2.69-2.36-6.92-4.95-9.39-5.76-2.48-0.82-6.75-1.45-9.5-1.42-2.75 0.04-6.87 0.83-9.16 1.76-2.28 0.94-5.67 3.05-7.51 4.7-1.85 1.65-4.72 5.02-6.38 7.5-1.65 2.47-3.78 6.19-4.73 8.25-0.94 2.06-2.46 7.46-3.36 12-1.14 5.76-1.47 10.97-1.09 17.25 0.38 6.27 1.36 11.12 3.21 16 1.46 3.85 4.2 9.47 6.08 12.5 1.89 3.02 3.43 6.06 3.43 6.75 0.01 0.69-1.9 3.84-4.23 7-2.34 3.16-4.53 5.97-4.88 6.25-0.34 0.27-1.79 2.75-3.22 5.5-1.42 2.75-3.07 7.25-3.67 10-0.59 2.75-0.94 8.15-0.78 12l0.29 7c15.5 1.1 22.02 1.88 24.5 2.44 2.47 0.56 9.45 1.89 15.5 2.97 6.05 1.07 13.25 2.21 16 2.53 2.75 0.32 7.81 0.69 11.25 0.82 3.44 0.13 3.75 8.79 3.4 8.24-0.36-0.55-5.15-1.08-10.65-1.18-5.5-0.11-14.05-0.92-19-1.81-4.95-0.89-13.05-2.26-18-3.04-4.95-0.79-11.36-1.44-14.25-1.45-2.89-0.01-5.25 0.2-5.25 0.48 0 0.27 0.73 1.96 1.63 3.75 0.89 1.79 3.71 5.69 6.25 8.67 2.54 2.98 6.87 7.09 9.62 9.12 2.75 2.03 7.47 5.15 10.5 6.94 3.02 1.78 9.32 4.51 14 6.05 4.67 1.54 12.1 3.11 16.5 3.48 4.4 0.37 8.45 0.97 8.99 1.33 0.54 0.36 0.71 0.21 0.37-0.34-0.35-0.55 3.44-2.85 3.76 1 0.41 4.78 1.38 7.5 1.38 7.5zm91.34 40.5c-16.46-0.52-18.34-0.25-21.09 1.47-2.72 1.7-3.25 2.64-3.27 5.78-0.01 2.38 0.72 4.57 2 6 1.11 1.24 2.02 2.47 2.02 2.75 0 0.27-1.58 0.95-3.5 1.5-2.26 0.65-3.85 1.89-4.5 3.5-0.55 1.37-1 3.62-1 5 0 1.37 1.12 3.62 2.5 5 2.5 2.5 2.5 2.5 0.48 4.25-1.19 1.03-2.2 3.39-2.44 5.75-0.34 3.19 0.07 4.55 2.02 6.75 1.34 1.51 2.89 2.75 3.44 2.75 0.55 0 1 0.45 1 1 0 0.55-0.68 1.67-1.5 2.5-0.83 0.82-1.5 2.62-1.5 4 0 1.37 1.28 3.96 2.85 5.75 1.65 1.88 4.7 3.82 7.25 4.59q4.4 1.35 15.65 1c10.69-0.32 11.25-0.24 11.26 1.66 0.02 1.64 0.19 1.73 0.95 0.5 0.54-0.88 0.55-1.91 0.03-2.5-0.55-0.62 0.42-2.04 2.56-3.75 1.9-1.51 4.64-5.11 6.1-8 1.73-3.44 2.81-7.49 3.14-11.75 0.27-3.58-0.09-9.65-0.79-13.5-0.7-3.85-1.98-8.35-2.84-10-0.86-1.65-1.82-5.25-2.12-8-0.51-4.71-0.84-5.2-5.81-8.5-3.04-2.03-5.26-4.24-5.25-5.25 0.01-0.96-0.43-1.53-0.98-1.25-0.55 0.27-1-0.63-1-2 0-1.38-0.45-2.73-1-3-0.55-0.28-1-0.05-1 0.5 0 0.55-0.45 0.77-1 0.5-0.55-0.28-2.66 5-2.66 5zm-69.34 1.5c-5.04 1.6-8.19 3.18-10.25 4.53-3.23 2.13-3.75 2.99-3.74 6.22 0 2.06-0.9 5.55-2 7.75-1.1 2.2-2.51 6.47-3.13 9.5-0.62 3.02-0.91 9.1-0.64 13.5 0.31 5.13 1.26 9.79 2.67 13 1.2 2.75 3.85 6.69 5.89 8.77 2.03 2.07 3.36 3.75 2.95 3.75-0.41-0.01-0.07 0.99 0.76 2.23 0.88 1.31 3.49-1.75 3.49-1.75 17.69-0.26 20.34-0.7 24-2.54 2.47-1.24 5.03-2.98 5.69-3.86 0.65-0.88 1.44-2.39 1.75-3.35 0.33-1.05-0.44-2.96-1.94-4.75-1.38-1.65-2.5-3.23-2.5-3.5 0-0.28 1.24-0.76 2.75-1.07 1.51-0.32 3.77-1.56 5.03-2.75 1.47-1.41 2.26-3.33 2.25-5.43-0.02-2.26-0.95-4.17-3.03-6.25-1.65-1.65-3-3.23-3-3.5 0-0.28 1.12-0.73 2.5-1 1.37-0.28 2.95-1.4 3.5-2.5q1-2 0-5.5-1-3.5-4-5c-1.65-0.83-3.9-1.5-5-1.5-1.1 0-2-0.23-2-0.5 0-0.28 1.12-1.85 2.5-3.5 1.37-1.65 2.51-4.24 2.52-5.75 0.01-1.51-0.89-3.76-2-5-1.11-1.24-3.25-2.28-4.77-2.32-1.51-0.04-5.23-0.15-8.25-0.25l-5.5-0.18c0.47-10.46-2.95-3.73-3.5-4-0.55-0.28-1.07 0.06-1.16 0.75-0.08 0.69-1.84 5.75-1.84 5.75z"/>
		<path id="Layer 2" class="s3" d="m155 310l0.11-49 30.89-1v20h17l1-21 34 1-6.36 6.06-22.64-0.06v21h-28l-0.85-20.71-19.15-0.29 1 51z"/>
		<path id="Path 1" class="s4" d="m168.5 27.37c-3.85 0.73-9.48 2.14-12.5 3.13-3.03 0.99-7.98 3.09-11 4.66-3.03 1.58-8.09 4.88-11.25 7.35-3.16 2.47-8.08 7.3-10.92 10.74-2.84 3.44-6.64 9.4-8.45 13.25-1.81 3.85-3.53 8.24-3.83 9.75-0.48 2.37-0.17 2.83 2.2 3.36 1.51 0.34 8.37 2.55 15.25 4.91 6.87 2.36 18.12 6.3 25 8.75 6.87 2.46 23.3 8.76 36.5 14.01 13.2 5.25 28.05 11.12 33 13.04 4.95 1.92 11.7 4.42 15 5.55 3.3 1.13 12.3 4.32 20 7.09 7.7 2.78 14.34 5.04 14.75 5.04 0.41 0 1.54-3.26 2.5-7.25 1.26-5.24 1.74-11.27 1.72-21.75-0.03-13.72-0.21-15.01-3.3-24-1.8-5.23-5.16-12.81-7.47-16.87-2.31-4.05-7.13-10.31-10.7-13.91-3.58-3.6-8.98-8.21-12-10.25-3.03-2.03-8.2-5.06-11.5-6.72-3.3-1.66-9.15-4-13-5.19-3.85-1.19-10.15-2.85-14-3.68-3.85-0.83-11.95-1.7-18-1.93-6.74-0.25-13.71 0.11-18 0.92zm-128 52.15c-2.2 0.78-4.57 2.22-5.27 3.2-0.69 0.98-1.26 2.79-1.25 4.03 0.01 1.24 0.64 3.49 1.39 5 0.76 1.51 4.02 5.19 7.25 8.17 3.24 2.98 9.03 7.46 12.88 9.95 3.85 2.49 12.62 7.39 19.5 10.88 6.87 3.48 12.83 6.66 13.23 7.04 0.4 0.39-0.06 2.36-1 4.38l-1.73 3.66c-23.52 0.75-24.32 0.92-32 4.63-5.58 2.69-9.84 5.7-14.09 9.95-4.16 4.16-7.23 8.47-9.68 13.59-1.97 4.12-4.11 10.42-4.76 14-0.64 3.57-0.91 9.2-0.59 12.5 0.33 3.3 1.43 8.47 2.46 11.5 1.03 3.02 2.84 7.41 4.02 9.75 1.18 2.34 4.96 7.06 8.4 10.5 3.45 3.44 8.51 7.46 11.25 8.94 2.75 1.48 7.69 3.39 10.99 4.25 3.3 0.86 7.8 1.57 10 1.57h4c-0.63 15.61-0.23 20.52 0.89 24.99 0.91 3.57 2.96 9.2 4.57 12.5 1.62 3.3 4.87 8.27 7.24 11.05 2.36 2.78 6.89 7.28 10.06 10 3.17 2.72 8.8 6.63 12.5 8.69 3.71 2.06 8.99 4.47 11.74 5.37 2.75 0.9 5.37 1.92 5.81 2.26 0.45 0.35-1.85 6.03-5.11 12.63-3.27 6.6-7.09 15.37-8.5 19.5-1.41 4.12-3.32 11.55-4.25 16.5-1.12 5.98-1.49 11.35-1.1 16 0.32 3.85 1.42 9.47 2.44 12.5 1.02 3.02 3.23 7.52 4.89 10 1.67 2.47 4.79 6.04 6.93 7.91 2.14 1.88 5.69 4.54 7.89 5.9 2.2 1.37 7.15 3.74 11 5.28 3.85 1.54 11.27 3.95 16.5 5.35 5.22 1.41 10.74 2.56 12.25 2.56h2.75c-4.92-5.81-7.28-9.53-8.43-12-1.74-3.77-2.07-6.44-2.05-16.5 0.03-10.75 0.31-12.68 2.74-18.5 1.49-3.58 2.7-7.85 2.69-9.5-0.01-1.65 0.79-3.74 1.77-4.64 0.98-0.9 4.03-2.76 6.78-4.13l5-2.5c0.41-9.09 0.29-12.52 0.01-13.48-0.28-0.98-1.94-2.05-3.76-2.44-1.79-0.38-4.56-1.84-6.16-3.25-1.6-1.41-3.74-4.47-4.75-6.81-1.01-2.34-1.84-5.15-1.84-6.25 0-1.76-0.67-2-5.5-2h-5.5c-0.18-9.69-0.29-13.17-0.37-13.98-0.1-1.1-2.55-1.78-9.63-2.64-5.23-0.64-12.2-2.02-15.5-3.08-3.3-1.06-8.93-3.64-12.5-5.74-3.58-2.11-8.75-5.49-11.5-7.52-2.75-2.03-7.05-6.14-9.56-9.12-2.5-2.98-5.31-6.66-6.25-8.17-0.93-1.51-1.69-3.2-1.69-3.75 0-0.56 2.76-1 6.25-1.01 3.44-0.01 11.42 0.91 17.75 2.03 6.32 1.13 16.67 2.73 23 3.58 6.32 0.84 13.07 1.39 15 1.21 3.2-0.28 3.53-0.61 3.8-3.81l0.3-3.5c-15.19-1-25.68-2.51-33.1-4-7.43-1.5-18.68-3.25-25-3.89l-11.5-1.17c0.09-20.12 0.33-21.41 3.15-26.94 1.68-3.3 5.39-9.15 8.23-13 2.85-3.85 5.17-7.34 5.15-7.75-0.02-0.41-1.61-3.34-3.54-6.5-1.93-3.16-4.69-8.9-6.13-12.75-1.99-5.32-2.73-9.51-3.11-17.5-0.31-6.5-0.03-12.59 0.73-16 0.68-3.03 2.17-7.75 3.31-10.5 1.14-2.75 3.45-7.03 5.13-9.5 1.68-2.48 4.41-5.76 6.07-7.3 1.65-1.55 4.92-3.68 7.26-4.75 2.8-1.28 6.39-1.94 10.5-1.93 3.78 0.02 7.83 0.73 10.25 1.8 2.2 0.98 5.8 3.19 8 4.91 2.2 1.72 5.24 5.41 6.75 8.2l2.75 5.07c8.91-8.18 14.87-12.24 19-14.3 4.12-2.06 11.1-4.48 15.5-5.37 6.32-1.3 9.47-1.43 15-0.66 4.07 0.56 9.93 2.35 14 4.25 4.27 2.01 9.3 5.49 12.9 8.93 4.45 4.26 6.89 7.75 9.9 14.15 3.66 7.8 4.04 9.37 4.5 19 0.43 8.96 0.17 11.6-1.75 18-1.24 4.12-3.45 9.51-4.9 11.97-1.46 2.46-4.72 6.73-7.26 9.5-2.53 2.77-6.36 6.2-8.5 7.62-2.14 1.42-5.13 3.34-6.64 4.25l-2.75 1.66c4.5 9.69 6.3 15.2 6.91 18.5 0.6 3.3 1.1 8.36 1.1 11.25l-0.01 5.25 22.37 0.5c-0.28 13.17-0.14 17.79 0.13 18.75 0.38 1.33 1.57 1.75 5 1.75h4.5c6.49-13.56 9.6-19.3 11.1-21.5 1.49-2.2 3.32-5.95 4.06-8.33 1.25-4.01 1.55-4.29 4.34-3.88 1.65 0.24 6.37 1.04 10.5 1.78 6.11 1.09 8.99 1.11 15.5 0.1 5.65-0.87 10.03-2.33 14.93-4.95 3.8-2.05 8.75-5.33 11-7.29 2.24-1.97 5.92-6.47 8.19-10.01 2.26-3.53 4.92-8.67 5.91-11.42 1.16-3.21 1.96-8.95 2.25-16 0.39-9.73 0.16-11.81-1.97-18-1.33-3.85-4.31-9.81-6.61-13.25-2.31-3.44-6.56-8.12-9.45-10.4-2.89-2.28-7.95-5.44-11.25-7.02-4.17-2-8.29-3.07-13.5-3.5-4.5-0.38-10.1-0.14-14 0.59-6.14 1.15-6.58 1.11-8-0.83-0.96-1.31-5.81-3.45-13.5-5.95-6.6-2.14-20.55-7.07-31-10.93-10.45-3.87-25.08-9.37-32.5-12.23-7.43-2.85-22.05-8.32-32.5-12.15-10.45-3.82-28.23-9.86-39.5-13.42-11.28-3.55-25-7.37-30.5-8.5-5.5-1.12-14.28-2.68-19.5-3.47-5.23-0.79-13.55-1.41-18.5-1.39-5.17 0.02-10.7 0.65-13 1.47zm246.25 238.73l-0.25 5.25-9.85 1c-1.84 9.76-3.02 12.32-5.15 14.53-1.92 1.99-4.45 3.36-7 3.8l-4 0.7-0.5 16.47c5.04 2.51 7.52 4.19 8.78 5.37 1.53 1.43 2.27 3.28 2.27 5.63 0 1.92 0.83 5.3 1.84 7.5 1.02 2.2 2.43 6.92 3.13 10.5 0.7 3.57 1.07 9.65 0.81 13.5-0.27 4.17-1.31 8.82-2.57 11.5-1.16 2.47-3.84 6.19-5.94 8.26l-3.82 3.76c6.2 0.01 11.94-1.12 16.75-2.5 4.81-1.39 11.76-3.98 15.44-5.77 3.68-1.79 9.14-5.5 12.13-8.25 2.99-2.75 6.5-6.8 7.8-9 1.3-2.2 3.04-6.48 3.86-9.5 0.82-3.03 1.51-8.65 1.53-12.5 0.02-4.34-0.77-9.66-2.08-14-1.16-3.85-3.46-9.7-5.11-13-1.64-3.3-4.41-8.25-6.14-11-1.73-2.75-3.49-5.45-3.91-6-0.42-0.55-3.84-5.05-7.61-10-3.76-4.95-7.59-9.56-8.5-10.25-1.49-1.12-1.69-0.71-1.91 4z"/>
		<path id="Path 4" class="s5" d="m205.04 18.22c-1.61 0.71-2.39 1.81-2.26 3.18 0.16 1.71 1.28 2.33 5.96 3.31 3.17 0.66 6.66 1.49 7.76 1.84 1.39 0.44 2.23 0.07 2.76-1.21 0.48-1.14 0.19-2.7-0.75-4.09-0.83-1.24-2.64-2.7-4.01-3.25-1.38-0.55-3.51-0.97-4.75-0.93-1.24 0.03-3.36 0.55-4.71 1.15zm12.71 247.53l-8.75 0.25c0.11 11.24 0.11 15.96 0.07 17.75l-0.07 3.25h-28c-0.14-6.59-0.32-10.3-0.48-12.5-0.16-2.2-0.35-5.01-0.41-6.25-0.11-2.17-0.46-2.25-9.61-2.25h-9.5c0 47.28 0.22 51.07 1.5 51.5 0.82 0.27 27.6 0.5 59.5 0.5h58c0.18-18.99 0.29-30.51 0.36-37.85 0.08-7.34-0.09-13.75-0.36-14.26-0.28-0.5-4.71-0.8-9.85-0.65l-9.36 0.26-0.29 21h-28c-0.89-20.11-0.94-20.29-3.45-20.64-1.4-0.2-6.49-0.25-11.3-0.11zm-42.31 59.07c-1.49 0.25-1.87 1.05-1.7 3.5 0.12 1.75 1.13 4.19 2.24 5.43 2.02 2.25 2.09 2.25 37.27 2.44 19.39 0.1 37.95 0.13 41.25 0.07 3.3-0.06 7.24-0.15 8.75-0.19 2.02-0.05 3.15-0.87 4.25-3.07 0.82-1.65 1.5-4.13 1.5-5.5v-2.5c-20.54-0.2-41.16-0.32-59.07-0.38-17.91-0.07-33.43 0.03-34.49 0.2zm14.57 23.17c0 2.75-0.12 5.8-0.26 6.76-0.2 1.47 0.65 1.78 5.25 1.93 3.03 0.1 6.74 0.21 8.25 0.25 1.52 0.04 3.66 1.08 4.77 2.32 1.11 1.24 2.01 3.49 2 5-0.01 1.51-1.15 4.1-2.52 5.75-1.38 1.65-2.5 3.22-2.5 3.5 0 0.27 0.9 0.5 2 0.5 1.1 0 3.35 0.67 5 1.5q3 1.5 4 5 1 3.5 0 5.5c-0.55 1.1-2.13 2.22-3.5 2.5-1.38 0.27-2.5 0.72-2.5 1 0 0.27 1.35 1.85 3 3.5 2.08 2.08 3.01 3.99 3.03 6.25 0.01 2.1-0.78 4.02-2.25 5.43-1.26 1.19-3.52 2.43-5.03 2.75-1.51 0.31-2.75 0.79-2.75 1.07 0 0.27 1.12 1.85 2.5 3.5 1.5 1.79 2.27 3.7 1.94 4.75-0.31 0.96-1.1 2.47-1.75 3.35-0.66 0.88-3.22 2.62-5.69 3.86-3.66 1.84-6.31 2.28-14.25 2.4l-9.75 0.14c-2.24 7.75-3.56 11.35-4.39 13-0.83 1.65-1.3 3.34-1.06 3.75 0.25 0.41 22.05 0.75 48.45 0.75 26.4 0 48.01-0.34 48.03-0.75 0.02-0.41-1.07-2.78-2.42-5.25-1.35-2.48-2.72-6.19-3.03-8.25-0.42-2.73-0.24-3.66 0.67-3.41 0.69 0.18 0.91 0.18 0.5 0-0.41-0.19-0.53-0.79-0.25-1.34 0.27-0.55-0.51-0.39-1.75 0.36-1.42 0.87-5.94 1.45-12.25 1.6-6.17 0.14-11.68-0.29-14.39-1.12-2.53-0.77-5.6-2.72-7.25-4.59-1.57-1.79-2.86-4.38-2.86-5.75 0-1.38 0.67-3.18 1.5-4 0.82-0.83 1.5-1.95 1.5-2.5 0-0.55-0.45-1-1-1-0.55 0-2.1-1.24-3.44-2.75-1.95-2.2-2.36-3.56-2.02-6.75 0.24-2.36 1.25-4.72 2.44-5.75 2.02-1.75 2.02-1.75-0.48-4.25-1.38-1.38-2.5-3.63-2.5-5 0-1.38 0.45-3.63 1-5 0.65-1.61 2.24-2.85 4.5-3.5 1.92-0.55 3.5-1.23 3.5-1.5 0-0.28-0.91-1.51-2.02-2.75-1.28-1.43-2.01-3.62-2-6 0.02-3.14 0.55-4.08 3.27-5.78 2.75-1.72 4.63-1.99 12.17-1.75l8.92 0.28 0.16-14-62.47-0.53zm-25.11 110.84c-4.4 4.45-8.09 9.15-8.77 11.18-0.64 1.92-1.16 4.51-1.15 5.75l0.01 2.25h134c0.01-4.27-0.45-7.08-1.01-9-0.67-2.28-3.64-6.04-8.51-10.75l-7.48-7.25-99.5 0.15zm-15.4 27.84c-0.46 0.36-0.76 5.09-0.66 10.5 0.13 7.75 0.48 9.94 1.66 10.33 0.83 0.28 33.68 0.5 73 0.5h71.5v-22c-112.11 0-145.04 0.3-145.5 0.67z"/>
		<path id="Path 5" class="s4" d="m168 153.32c-1.93 0.68-5.04 2.35-6.92 3.71-1.88 1.36-4.69 4.38-6.25 6.72-1.56 2.34-3.56 7.06-4.45 10.5-1.06 4.11-1.41 8.13-1.02 11.75 0.33 3.02 1.69 7.75 3.03 10.5 1.34 2.75 4.28 6.69 6.53 8.75 2.24 2.06 5.99 4.75 8.33 5.98 3.41 1.79 5.93 2.23 12.75 2.25 7.08 0.02 9.34-0.4 13.5-2.47 2.75-1.37 6.55-4.07 8.44-6 1.89-1.93 4.58-5.99 5.97-9.01 2.05-4.45 2.53-7.03 2.52-13.5-0.01-5.92-0.55-9.17-2.07-12.5-1.13-2.48-4.03-6.45-6.46-8.82-2.42-2.38-6.65-5.42-9.4-6.76-4.08-1.99-6.48-2.43-13-2.39-4.4 0.03-9.58 0.61-11.5 1.29zm-57 16.59c-1.38 0.41-3.63 1.47-5 2.34-1.38 0.88-3.33 3.09-4.35 4.92-1.01 1.83-1.69 4.45-1.5 5.83 0.28 2.02 0.98 2.55 3.6 2.75 2.33 0.18 3.43-0.24 3.9-1.5 0.36-0.96 1.37-2.55 2.25-3.53 0.98-1.09 2.96-1.77 5.1-1.74 1.92 0.03 4 0.38 4.61 0.79 0.61 0.4 1.85 2.19 2.75 3.98 1.3 2.58 2.18 3.2 4.29 3 1.46-0.14 3.14-1.04 3.75-2.01 0.86-1.39 0.57-2.76-1.4-6.43-1.61-3.02-3.74-5.29-6-6.4-1.93-0.96-4.85-1.96-6.5-2.25-1.65-0.28-4.13-0.17-5.5 0.25zm1 47.29c-0.77 0.66-1.31 2.23-1.2 3.5 0.11 1.26 1.44 3.23 2.95 4.36 1.53 1.15 3.86 1.92 5.25 1.75 2.14-0.27 2.5-0.82 2.5-3.89 0-1.96-0.68-4.34-1.5-5.29-0.83-0.95-2.65-1.7-4.05-1.67-1.4 0.02-3.18 0.58-3.95 1.24zm21.5 0.6c-1.65 0.99-3.52 3.12-4.16 4.75-0.69 1.76-0.8 3.56-0.29 4.45q0.88 1.49 4.66 1.27c2.08-0.13 4.91-1.08 6.29-2.1 1.47-1.1 2.61-3.07 2.78-4.77 0.18-1.89-0.34-3.32-1.5-4.12-0.98-0.67-2.46-1.23-3.28-1.24-0.83-0.02-2.85 0.78-4.5 1.76zm41 18.87c-0.46 0.36-0.76 1.26-0.67 2 0.09 0.73 1.18 1.34 2.42 1.34 1.24 0.01 3.26 0.24 4.5 0.5 1.31 0.29 2.24 1.22 2.22 2.24-0.01 0.96-3.61 5.24-8 9.5l-7.97 7.75h13c6.97-7.75 9-10.45 9-11 0-0.55 0.56-1 1.25-0.99 0.69 0 2.04 1.35 3 3 0.96 1.64 2.2 2.99 2.75 2.99 0.55 0 1.26-1.01 1.57-2.25 0.35-1.36-0.34-4.02-1.75-6.75-1.69-3.29-3.53-5.11-6.82-6.76-2.73-1.37-6.31-2.25-9.08-2.25-2.52 0.01-4.96 0.31-5.42 0.68z"/>
		<path id="Path 6" class="s2" d="m68.75 161.12c-3.16 0.48-7.21 1.85-9 3.04-1.79 1.19-4.32 3.11-5.63 4.25-1.31 1.15-3.45 4.34-4.74 7.09-1.62 3.43-2.36 6.81-2.37 10.75-0.01 3.6 0.74 7.43 1.99 10.25 1.1 2.47 3.91 6.44 6.25 8.8 2.64 2.68 6.15 4.96 9.25 6.02 2.75 0.94 6.35 1.7 8 1.69l3-0.02c-1.85-12.78-2.4-21.22-2.41-26.99-0.01-5.81 0.63-13.18 1.43-16.5 0.8-3.3 1.46-6.79 1.46-7.75 0.01-0.96-0.32-1.7-0.73-1.63-0.41 0.07-3.34 0.52-6.5 1zm209.5 10.49c-2.09 0.36-2.25 0.91-2.27 7.64-0.01 3.99-0.66 13.55-1.45 21.25-0.78 7.7-1.67 15.91-1.98 18.25-0.55 4.22-0.52 4.26 3.2 5.24 2.06 0.55 5.55 1.01 7.75 1.03 2.2 0.01 6.47-0.76 9.5-1.71 4.07-1.29 6.87-3.12 10.75-7.03 2.89-2.9 5.92-6.86 6.75-8.78 0.85-1.98 1.49-6.42 1.48-10.25-0.02-4.28-0.68-8.21-1.81-10.75-0.99-2.2-3.34-5.61-5.23-7.58-1.89-1.98-5.02-4.51-6.94-5.63-2.6-1.51-5.3-2.04-10.5-2.06-3.85-0.01-8.01 0.16-9.25 0.38z"/>
		<path id="Path 8" class="s5" d="m164.59 45.69c-3.86 2.08-4.87 3.14-4.75 4.98 0.09 1.28-0.29 2.55-0.84 2.83-0.55 0.27-1.23 0.05-1.5-0.5-0.28-0.55-1.66-1-3.07-1-1.41 0-3.15 0.79-3.86 1.75-0.71 0.96-1.54 2.65-1.84 3.75-0.31 1.1 0.08 3.01 0.85 4.25 1.07 1.69 2.22 2.19 4.63 2 2.19-0.17 3.32 0.23 3.55 1.25 0.19 0.83-0.79 2.06-2.21 2.75-1.72 0.84-2.55 2.06-2.55 3.75 0 1.37 0.65 4.19 1.45 6.25 0.8 2.06 3.17 5.07 5.25 6.69 2.09 1.62 5.26 3.53 7.05 4.25 1.79 0.72 5.16 1.32 7.5 1.33 2.56 0.01 6.04-0.91 8.75-2.33 4.25-2.23 4.5-2.6 4.5-6.56 0-2.67 0.55-4.54 1.5-5.12q1.5-0.9 3 0.52c0.82 0.78 2.4 1.45 3.5 1.48 1.1 0.03 2.78-0.75 3.72-1.73 0.95-0.98 1.74-3.02 1.75-4.53 0.02-1.51-0.76-3.47-1.72-4.35-0.96-0.87-2.54-1.32-3.5-1-1.57 0.54-1.69 0.05-1.13-4.65 0.43-3.74 0.17-6.11-0.91-8.25-0.84-1.65-2.58-3.99-3.86-5.19-1.29-1.21-4.04-2.9-6.1-3.75-2.06-0.86-6.11-1.55-9-1.54-3.74 0.02-6.66 0.79-10.16 2.67zm11.81 110.88c-0.5 0.14-2.19 0.53-3.77 0.86-2.6 0.55-2.85 0.98-2.75 4.59l0.12 3.98h11c-0.21-7.63-0.69-8.88-1.97-9.22-0.95-0.25-2.14-0.34-2.63-0.21zm-19.84 12.68c-0.75 1.79-1.62 5.95-1.94 9.25-0.32 3.38-0.23 4.91 0.2 3.5 0.57-1.84 1.42-2.47 3.23-2.37 1.35 0.07 4.14 0.19 6.2 0.25l3.75 0.12-0.5 12.5c-8.65 0.41-10.5 0.94-10.5 1.75 0.01 0.69 0.82 2.6 1.81 4.25 1 1.65 3.47 4.01 5.5 5.25l3.69 2.25v-12l12.5-0.5 0.5-13.5h14v14l10.5-0.5c1.83-10.64 1.75-11.76 0.5-12.54-0.83-0.51-3.64-0.94-6.25-0.94l-4.75-0.02c0-11.39-0.37-13.12-1.5-13.5-0.83-0.28-3.3-0.5-5.5-0.5-2.2 0-4.68 0.22-5.5 0.5-1.13 0.38-1.5 2.11-1.5 7v6.5h-13v-14c-9.78 0-10.16 0.19-11.44 3.25zm24.44 31.75v7c8.43-0.39 11.32-0.95 11.88-1.5 0.55-0.55 1.25-2.91 1.56-5.25 0.31-2.34 0.33-4.93 0.06-5.75-0.38-1.13-2.11-1.5-7-1.5h-6.5z"/>
	</g>
</svg>