<svg version="1.2" xmlns="http://www.w3.org/2000/svg" viewBox="0 0 405 522" width="405" height="522"><style>.a{fill:#1b2a43}.b{fill:#f0e8d3}.c{fill:#f9f9f8}.d{fill:#bd9d58}</style><path class="a" d="m168.5 27.4c-3.8 0.7-9.5 2.1-12.5 3.1-3 1-8 3.1-11 4.7-3 1.5-8.1 4.8-11.3 7.3-3.1 2.5-8 7.3-10.9 10.8-2.8 3.4-6.6 9.3-8.4 13.2-1.8 3.8-3.6 8.2-3.9 9.8-0.4 2.3-0.1 2.8 2.3 3.3 1.5 0.3 8.3 2.6 15.2 4.9 6.9 2.4 18.1 6.3 25 8.8 6.9 2.4 23.3 8.7 36.5 14 13.2 5.2 28.1 11.1 33 13 4.9 1.9 11.7 4.4 15 5.6 3.3 1.1 12.3 4.3 20 7.1 7.7 2.7 14.3 5 14.8 5 0.4 0 1.5-3.3 2.5-7.3 1.2-5.2 1.7-11.2 1.7-21.7-0.1-13.7-0.2-15-3.3-24-1.8-5.2-5.2-12.8-7.5-16.9-2.3-4-7.1-10.3-10.7-13.9-3.6-3.6-9-8.2-12-10.2-3-2.1-8.2-5.1-11.5-6.7-3.3-1.7-9.2-4-13-5.2-3.8-1.2-10.2-2.9-14-3.7-3.8-0.9-11.9-1.7-18-1.9-6.7-0.3-13.7 0.1-18 0.9zm-128 52.1c-2.2 0.8-4.6 2.2-5.3 3.2-0.7 1-1.2 2.8-1.2 4 0 1.3 0.6 3.5 1.4 5 0.7 1.6 4 5.2 7.2 8.2 3.3 3 9 7.5 12.9 10 3.9 2.5 12.6 7.4 19.5 10.8 6.9 3.5 12.8 6.7 13.2 7.1 0.4 0.4 0 2.4-1 4.4l-1.7 3.6c-23.5 0.8-24.3 0.9-32 4.7-5.6 2.6-9.8 5.7-14.1 9.9-4.2 4.2-7.2 8.5-9.7 13.6-1.9 4.1-4.1 10.4-4.7 14-0.7 3.6-0.9 9.2-0.6 12.5 0.3 3.3 1.4 8.5 2.4 11.5 1.1 3 2.9 7.4 4.1 9.7 1.1 2.4 4.9 7.1 8.4 10.5 3.4 3.5 8.5 7.5 11.2 9 2.8 1.5 7.7 3.4 11 4.2 3.3 0.9 7.8 1.6 10 1.6h4c-0.6 15.6-0.2 20.5 0.9 25 0.9 3.6 3 9.2 4.6 12.5 1.6 3.3 4.8 8.3 7.2 11.1 2.4 2.7 6.9 7.2 10.1 10 3.1 2.7 8.8 6.6 12.5 8.6 3.7 2.1 9 4.5 11.7 5.4 2.8 0.9 5.4 1.9 5.8 2.3 0.5 0.3-1.8 6-5.1 12.6-3.3 6.6-7.1 15.4-8.5 19.5-1.4 4.1-3.3 11.6-4.2 16.5-1.2 6-1.5 11.3-1.1 16 0.3 3.9 1.4 9.5 2.4 12.5 1 3 3.2 7.5 4.9 10 1.7 2.5 4.8 6 6.9 7.9 2.1 1.9 5.7 4.5 7.9 5.9 2.2 1.4 7.2 3.8 11 5.3 3.8 1.5 11.3 3.9 16.5 5.3 5.2 1.4 10.7 2.6 12.3 2.6h2.7c-4.9-5.8-7.3-9.5-8.4-12-1.8-3.8-2.1-6.4-2.1-16.5 0-10.8 0.3-12.7 2.8-18.5 1.5-3.6 2.7-7.9 2.7-9.5-0.1-1.6 0.7-3.7 1.7-4.6 1-0.9 4.1-2.8 6.8-4.2l5-2.5c0.4-9.1 0.3-12.5 0-13.5-0.3-0.9-1.9-2-3.7-2.4-1.8-0.4-4.6-1.8-6.2-3.2-1.6-1.4-3.7-4.5-4.8-6.9-1-2.3-1.8-5.1-1.8-6.2 0-1.8-0.7-2-5.5-2h-5.5c-0.2-9.7-0.3-13.2-0.4-14-0.1-1.1-2.5-1.8-9.6-2.6-5.2-0.7-12.2-2-15.5-3.1-3.3-1.1-8.9-3.6-12.5-5.7-3.6-2.1-8.8-5.5-11.5-7.6-2.7-2-7.1-6.1-9.6-9.1-2.5-3-5.3-6.6-6.2-8.2-0.9-1.5-1.7-3.1-1.7-3.7 0-0.6 2.8-1 6.3-1 3.4 0 11.4 0.9 17.7 2 6.3 1.1 16.7 2.8 23 3.6 6.3 0.8 13.1 1.4 15 1.2 3.2-0.3 3.5-0.6 3.8-3.8l0.3-3.5c-15.2-1-25.7-2.5-33.1-4-7.4-1.5-18.7-3.2-25-3.9l-11.5-1.2c0.1-20.1 0.3-21.4 3.1-26.9 1.7-3.3 5.4-9.2 8.3-13 2.8-3.8 5.1-7.3 5.1-7.8 0-0.4-1.6-3.3-3.5-6.5-1.9-3.1-4.7-8.9-6.1-12.7-2-5.3-2.8-9.5-3.2-17.5-0.3-6.5 0-12.6 0.8-16 0.7-3 2.1-7.8 3.3-10.5 1.1-2.8 3.4-7 5.1-9.5 1.7-2.5 4.4-5.8 6.1-7.3 1.6-1.5 4.9-3.7 7.3-4.8 2.7-1.2 6.3-1.9 10.5-1.9 3.7 0 7.8 0.7 10.2 1.8 2.2 1 5.8 3.2 8 4.9 2.2 1.8 5.2 5.4 6.8 8.2l2.7 5.1c8.9-8.2 14.9-12.2 19-14.3 4.1-2.1 11.1-4.5 15.5-5.4 6.3-1.3 9.5-1.4 15-0.6 4.1 0.5 9.9 2.3 14 4.2 4.3 2 9.3 5.5 12.9 9 4.4 4.2 6.9 7.7 9.9 14.1 3.7 7.8 4 9.4 4.5 19 0.4 9 0.2 11.6-1.8 18-1.2 4.1-3.4 9.5-4.9 12-1.4 2.4-4.7 6.7-7.2 9.5-2.5 2.7-6.4 6.2-8.5 7.6-2.1 1.4-5.1 3.3-6.6 4.2l-2.8 1.7c4.5 9.7 6.3 15.2 6.9 18.5 0.6 3.3 1.1 8.4 1.1 11.2v5.3l22.4 0.5c-0.3 13.2-0.2 17.8 0.1 18.7 0.4 1.4 1.6 1.8 5 1.8h4.5c6.5-13.6 9.6-19.3 11.1-21.5 1.5-2.2 3.3-5.9 4.1-8.3 1.2-4 1.5-4.3 4.3-3.9 1.6 0.2 6.4 1 10.5 1.8 6.1 1.1 9 1.1 15.5 0.1 5.7-0.9 10-2.4 14.9-5 3.8-2 8.8-5.3 11-7.3 2.3-1.9 6-6.4 8.2-10 2.3-3.5 4.9-8.7 5.9-11.4 1.2-3.2 2-8.9 2.3-16 0.4-9.7 0.1-11.8-2-18-1.3-3.8-4.3-9.8-6.6-13.3-2.3-3.4-6.6-8.1-9.4-10.4-2.9-2.2-8-5.4-11.3-7-4.2-2-8.3-3-13.5-3.5-4.5-0.4-10.1-0.1-14 0.6-6.1 1.2-6.6 1.1-8-0.8-1-1.3-5.8-3.5-13.5-6-6.6-2.1-20.6-7-31-10.9-10.4-3.9-25.1-9.4-32.5-12.2-7.4-2.9-22.1-8.3-32.5-12.2-10.4-3.8-28.2-9.8-39.5-13.4-11.3-3.5-25-7.4-30.5-8.5-5.5-1.1-14.3-2.7-19.5-3.5-5.2-0.7-13.5-1.4-18.5-1.4-5.2 0.1-10.7 0.7-13 1.5zm246.3 238.8l-0.3 5.2-9.9 1c-1.8 9.8-3 12.3-5.1 14.5-1.9 2-4.4 3.4-7 3.8l-4 0.7-0.5 16.5c5 2.5 7.5 4.2 8.8 5.4 1.5 1.4 2.3 3.2 2.2 5.6 0 1.9 0.9 5.3 1.9 7.5 1 2.2 2.4 6.9 3.1 10.5 0.7 3.6 1.1 9.6 0.8 13.5-0.2 4.2-1.3 8.8-2.5 11.5-1.2 2.5-3.9 6.2-6 8.3l-3.8 3.7c6.2 0 11.9-1.1 16.7-2.5 4.9-1.4 11.8-4 15.5-5.8 3.7-1.7 9.1-5.5 12.1-8.2 3-2.8 6.5-6.8 7.8-9 1.3-2.2 3.1-6.5 3.9-9.5 0.8-3 1.5-8.6 1.5-12.5 0-4.3-0.8-9.7-2.1-14-1.1-3.9-3.4-9.7-5.1-13-1.6-3.3-4.4-8.3-6.1-11-1.8-2.8-3.5-5.4-3.9-6-0.4-0.6-3.9-5.1-7.6-10-3.8-4.9-7.6-9.6-8.5-10.3-1.5-1.1-1.7-0.7-2 4z"/><path fill-rule="evenodd" class="b" d="m216.7 18c0.4-0.1 1.3 0.5 1.9 1.2 0.6 0.7 1.4 2.2 1.8 3.3 0.4 1.2 0 2.8-0.9 4-1.5 1.9-1.6 1.9-0.5-0.5 1-2.1 0.9-2.9-1-5.3-1.1-1.5-1.7-2.7-1.3-2.7zm-0.9 103.1c0.4 0 1.6 0.5 2.7 1 1.7 0.8 1.5 0.8-0.7 0.4-1.6-0.3-2.8 0-2.8 0.5 0 0.6 0.8 1.4 1.8 2 0.9 0.5 1.5 1 1.2 1-0.3 0-2.5-0.9-5-2-2.9-1.4-3.5-1.9-1.7-1.6 1.5 0.3 2.9 0.2 3.2-0.4 0.4-0.5 0.9-1 1.3-0.9zm-20.3 3.4c3.3 0.3 7.6 1 9.5 1.6 1.9 0.6 5.9 2.3 8.9 3.7 3 1.5 8.2 5.2 11.5 8.3 4.4 4 6.9 7.4 9 12 1.6 3.5 3.5 8.9 4.2 11.9 0.7 3 1.3 8.7 1.4 12.5 0 3.8-0.7 9.7-1.6 13-0.8 3.3-2.7 8.5-4.2 11.5-1.6 3.3-5.7 8.5-10.2 13-4.1 4.1-9.4 8.4-11.8 9.5-2.3 1.1-4.2 2.3-4.2 2.8 0 0.4 0.6 1.7 1.4 3 0.8 1.2 2.2 4.5 3.2 7.2 0.9 2.8 2 7.7 2.5 11 0.4 3.3 0.4 8.5-0.1 11.5-0.7 4-0.6 5.8 0.3 6.8 0.7 0.7 3.5 1.4 6.2 1.5 2.8 0.2 1.1 0.4-12.5 0.7l0.1 7.3c0 3.9 0 8.7-0.1 13.7h-28l-0.1-4.2c0-2.4-0.2-6.1-0.4-8.3-0.1-2.2-0.3-5-0.4-6.2-0.1-2.2-0.4-2.3-19.1-2.3v50.6c-0.6-1.4-1.1-3.7-1.4-7.1-0.3-3.9-0.6-7.8-0.6-8.7 0-1-0.4-1.8-1-1.8-0.5 0-0.9 0.8-0.8 1.8 0 0.9-0.4 2.8-0.9 4.2-0.6 1.4-0.8 2.9-0.4 3.5 0.3 0.6 0.1 0.7-0.4 0.3-0.6-0.3-4.6-0.9-9-1.3-4.4-0.4-11.8-1.9-16.5-3.5-4.7-1.5-11-4.2-14-6-3-1.8-7.7-4.9-10.5-7-2.7-2-7.1-6.1-9.6-9.1-2.6-3-5.4-6.9-6.3-8.6-0.9-1.8-1.6-3.5-1.6-3.8 0-0.3 2.4-0.5 5.3-0.5 2.8 0 9.3 0.7 14.2 1.5 5 0.8 13.1 2.1 18 3 5 0.9 13.5 1.7 19 1.8 5.5 0.1 10.3 0.6 10.6 1.2 0.4 0.6 0.8 2.8 0.8 5 0.1 2.2 0.3 4.9 0.5 6 0.3 1.1 0.5 2.3 0.5 2.8 0.1 0.4 0.6 0.7 1.1 0.7 0.6 0 1-2.7 1-6 0-3.7-0.4-5.8-1-5.5q-1 0.5 0-2c0.6-1.4 1-3.4 1-4.5 0-1.1-0.4-1.8-1-1.5-0.5 0.3-1.2-0.2-1.5-1-0.3-0.8 0-1.3 0.5-1 0.6 0.3 1 0.2 1-0.2 0-0.5-2.8-0.9-6.2-1-3.5-0.2-8.5-0.5-11.3-0.9-2.7-0.3-9.9-1.4-16-2.5-6-1.1-13-2.4-15.5-3-2.5-0.5-9-1.3-24.5-2.4l-0.3-7c-0.2-3.8 0.2-9.2 0.8-12 0.6-2.7 2.2-7.2 3.7-10 1.4-2.7 2.8-5.2 3.2-5.5 0.3-0.3 2.5-3.1 4.9-6.2 2.3-3.2 4.2-6.4 4.2-7 0-0.7-1.6-3.8-3.4-6.8-1.9-3-4.7-8.7-6.1-12.5-1.9-4.9-2.8-9.7-3.2-16-0.4-6.3-0.1-11.5 1.1-17.2 0.9-4.6 2.4-10 3.3-12 1-2.1 3.1-5.8 4.8-8.3 1.6-2.5 4.5-5.8 6.3-7.5 1.9-1.7 5.3-3.8 7.5-4.7 2.3-0.9 6.5-1.7 9.2-1.8 2.8 0 7 0.6 9.5 1.5 2.5 0.8 6.7 3.4 9.4 5.7 2.7 2.4 5.9 6.4 9.6 13.8l5.3-5.3c2.8-3 7.7-6.8 10.7-8.4 3-1.7 7.8-3.9 10.5-4.8 2.8-0.9 7-2.1 9.5-2.5 2.5-0.5 7.2-0.7 10.5-0.5zm-34.2 192.6l2.5 0.8c1.5 0.5 2 1 1.2 1-0.8 0.1-2.2-0.4-3.1-1.1q-0.4-0.3-0.6-0.7zm-0.3-0.1v-0.4q0.1 0.3 0.3 0.5zm72-52v21h27l0.5-19v19.5h-28l-0.5-20.5-2.8-0.4c-2.5-0.3-2.4-0.3 3.8-0.6zm47.7 34.5c0.2 3.3 0.2 8.9 0 12.5-0.2 3.6-0.3 0.9-0.3-6 0-6.9 0.1-9.8 0.3-6.5zm-77.2 18.8c3.8 0 5.2 0.2 3 0.4-2.2 0.2-5.4 0.2-7 0-1.7-0.2 0.1-0.4 4-0.4zm31.5 0c5.2 0 7.2 0.2 4.5 0.4-2.8 0.2-7.1 0.2-9.5 0-2.5-0.2-0.3-0.4 5-0.4zm24.5 0.1c8.2 0 11.8 0.1 8 0.3-3.9 0.2-10.6 0.2-15 0-4.4-0.2-1.3-0.3 7-0.3zm-3.5 6c7.4 0 10.3 0.1 6.5 0.3-3.9 0.2-10 0.2-13.5 0-3.6-0.2-0.5-0.3 7-0.3zm-42 12c18.9 0 26.8 0.2 17.5 0.3-9.4 0.2-24.9 0.2-34.5 0-9.7-0.1-2-0.3 17-0.3zm-4.5 6l20.7-0.2c11.4-0.1 21.4 0 22.3 0.3 1 0.3 1.5 1.9 1.5 5 0 2.5 0.4 4.7 1 5 0.5 0.3 1 0 1-0.5 0-0.6 0.4-0.8 1-0.5 0.5 0.3 1 1.6 1 3 0 1.4 0.4 2.3 1 2 0.5-0.3 1 0.3 0.9 1.2 0 1.1 2.3 3.3 5.3 5.3 5 3.3 5.3 3.8 5.8 8.5 0.3 2.7 1.3 6.3 2.1 8 0.9 1.6 2.2 6.1 2.9 10 0.7 3.8 1 9.9 0.8 13.5-0.4 4.2-1.5 8.3-3.2 11.7-1.4 2.9-4.2 6.5-6.1 8-2.1 1.7-3.1 3.2-2.5 3.8 0.5 0.6 0.5 1.6-0.1 2.5-0.7 1.2-0.9 1.1-0.9-0.5 0-1.9-0.6-2-11.3-1.7q-11.2 0.4-15.6-1c-2.6-0.7-5.6-2.7-7.3-4.6-1.6-1.7-2.8-4.3-2.8-5.7 0-1.4 0.6-3.2 1.5-4 0.8-0.8 1.5-2 1.5-2.5 0-0.6-0.5-1-1-1-0.6 0-2.1-1.2-3.5-2.8-1.9-2.2-2.3-3.5-2-6.7 0.3-2.4 1.3-4.7 2.4-5.8 2.1-1.7 2.1-1.7-0.4-4.2-1.4-1.4-2.5-3.6-2.5-5 0-1.4 0.4-3.6 1-5 0.6-1.6 2.2-2.9 4.5-3.5 1.9-0.6 3.5-1.2 3.5-1.5 0-0.3-0.9-1.5-2.1-2.8-1.2-1.4-2-3.6-2-6 0.1-3.1 0.6-4 3.3-5.7 2.8-1.8 4.6-2 21.1-1.5l0.2-14zm-19.8 0.5c0.2 0 0.2 3.1-0.2 13.5l5.5 0.2c3 0.1 6.7 0.2 8.2 0.3 1.5 0 3.7 1.1 4.8 2.3 1.1 1.2 2 3.5 2 5 0 1.5-1.2 4.1-2.5 5.7-1.4 1.7-2.5 3.3-2.5 3.5 0 0.3 0.9 0.5 2 0.5 1.1 0 3.3 0.7 5 1.5q3 1.5 4 5 1 3.5 0 5.5c-0.6 1.1-2.2 2.3-3.5 2.5-1.4 0.3-2.5 0.8-2.5 1 0 0.3 1.3 1.9 3 3.5 2 2.1 3 4 3 6.3 0 2.1-0.8 4-2.3 5.4-1.2 1.2-3.5 2.5-5 2.8-1.5 0.3-2.7 0.8-2.7 1 0 0.3 1.1 1.9 2.5 3.5 1.5 1.8 2.2 3.8 1.9 4.8-0.3 1-1.1 2.5-1.7 3.4-0.7 0.8-3.3 2.6-5.7 3.8-3.7 1.8-6.3 2.3-24 2.5l-1.6 5.5c-0.9 3.1-2 6-2.4 6.5-0.4 0.6-1 1.8-1.4 2.8-0.4 1.2 0 2 1.6 2.7 1.3 0.5 1.6 0.9 0.8 1-0.9 0-2.1-0.3-2.9-0.7-1-0.6-0.9-1.6 0.6-5.3 1.1-2.4 2.3-5.4 2.6-6.5 0.4-1.1 0.1-2.9-0.8-4.2-0.9-1.2-1.2-2.2-0.8-2.2 0.4 0-0.9-1.7-2.9-3.8-2.1-2.1-4.7-6-5.9-8.8-1.4-3.2-2.4-7.8-2.7-13-0.3-4.4 0-10.4 0.6-13.5 0.7-3 2.1-7.3 3.2-9.5 1.1-2.2 2-5.6 2-7.7 0-3.2 0.5-4.1 3.7-6.2 2.1-1.4 5.2-2.9 10.3-4.6l0.1-7.2c0.2-7.1 0.2-7.1 0.9-2.3 0.3 2.8 0.7 4.5 0.8 3.8 0.1-0.7 0.6-1 1.2-0.8 0.5 0.3 1.5-1.7 2.1-4.5 0.7-2.7 1.4-5 1.6-5zm27.8 101.5c22 0 30.7 0.1 19.5 0.3-11.3 0.2-29.3 0.2-40 0-10.8-0.2-1.5-0.3 20.5-0.3zm-24.5 5.9c4.6 0 6.4 0.2 4 0.4-2.5 0.2-6.3 0.2-8.5 0-2.2-0.2-0.2-0.4 4.5-0.4zm34.5 0.1l45-0.4 4 4.2c2.2 2.3 5.7 5.7 7.8 7.5 2 1.8 3.6 3.6 3.6 4 0 0.4-3.6-2.7-15.9-14.8zm-59.7 5.6c0.4 0-1.9 2.4-5 5.2-3.4 3.2-6.1 6.7-6.8 8.8-0.6 1.9-1.1 4.5-1 8l126.5 0.5-63 0.2c-34.7 0.2-63.4-0.1-63.9-0.5-0.4-0.4-0.5-3-0.1-5.7 0.5-4.5 1.3-5.6 6.6-10.8 3.3-3.1 6.3-5.7 6.7-5.7zm127.7 29.5l0.1 22-0.6-21.5h-72.5c-68 0-72.6 0.1-73.5 1.7-0.5 1-1 1.3-1 0.8 0-0.6 0.3-1.6 0.7-2.2 0.6-1 14.5-1.3 59.3-1.5 32.1-0.2 65-0.1 87.5 0.7zm-25.8 22.3c9.2 0.1 18.6 0.4 20.8 0.5 2.2 0.2-5.4 0.4-16.8 0.5-11.4 0.1-20.7-0.1-20.7-0.6 0-0.4 7.5-0.6 16.7-0.4zm-66.7 0.7c27.2 0 38.2 0.1 24.5 0.2-13.8 0.2-36.1 0.2-49.5 0-13.5-0.1-2.3-0.2 25-0.2z"/><path class="c" d="m155.2 268.8c-1 0.5-1.2 1.8-0.8 4.2 0.4 1.9 0.9 5.5 1.2 8 0.3 2.5 0.7 5.4 0.9 6.5 0.2 1.1 0.4 2.3 0.4 2.7 0.1 0.5 0.6 0.8 1.1 0.8 0.6 0 1-2.7 1-6 0-3.7-0.4-5.8-1-5.5q-1 0.5 0-2c0.6-1.4 1-3.4 1-4.5 0-1.1-0.4-1.8-1-1.5-0.6 0.3-1.2-0.2-1.5-1-0.3-0.8-0.1-1.3 0.5-1 0.6 0.3 1 0 1-0.5 0-0.6-0.3-1-0.7-1-0.5 0-1.4 0.4-2.1 0.8z"/><path class="d" d="m205 18.2c-1.6 0.7-2.3 1.8-2.2 3.2 0.1 1.7 1.3 2.3 5.9 3.3 3.2 0.7 6.7 1.5 7.8 1.8 1.4 0.5 2.2 0.1 2.8-1.2 0.4-1.1 0.1-2.7-0.8-4-0.8-1.3-2.6-2.7-4-3.3-1.4-0.6-3.5-1-4.8-0.9-1.2 0-3.3 0.5-4.7 1.1zm12.8 247.5l-8.8 0.3c0.1 11.2 0.1 16 0.1 17.7l-0.1 3.3h-28c-0.1-6.6-0.3-10.3-0.5-12.5-0.1-2.2-0.3-5-0.4-6.3-0.1-2.1-0.4-2.2-9.6-2.2h-9.5c0 47.3 0.2 51.1 1.5 51.5 0.8 0.3 27.6 0.5 59.5 0.5h58c0.2-19 0.3-30.5 0.4-37.8 0-7.4-0.1-13.8-0.4-14.3-0.3-0.5-4.7-0.8-9.9-0.7l-9.3 0.3-0.3 21h-28c-0.9-20.1-0.9-20.3-3.4-20.6-1.5-0.2-6.5-0.3-11.3-0.2zm-42.4 59.1c-1.4 0.3-1.8 1.1-1.7 3.5 0.2 1.8 1.2 4.2 2.3 5.4 2 2.3 2.1 2.3 37.3 2.5 19.3 0.1 37.9 0.1 41.2 0.1 3.3-0.1 7.2-0.2 8.8-0.2 2-0.1 3.1-0.9 4.2-3.1 0.8-1.6 1.5-4.1 1.5-5.5v-2.5c-20.5-0.2-41.2-0.3-59.1-0.4-17.9 0-33.4 0-34.5 0.2zm14.6 23.2c0 2.7-0.1 5.8-0.2 6.7-0.3 1.5 0.6 1.8 5.2 2 3 0.1 6.7 0.2 8.3 0.2 1.5 0.1 3.6 1.1 4.7 2.3 1.1 1.3 2 3.5 2 5 0 1.6-1.1 4.2-2.5 5.8-1.4 1.6-2.5 3.2-2.5 3.5 0 0.3 0.9 0.5 2 0.5 1.1 0 3.3 0.7 5 1.5q3 1.5 4 5 1 3.5 0 5.5c-0.6 1.1-2.1 2.2-3.5 2.5-1.4 0.3-2.5 0.7-2.5 1 0 0.3 1.3 1.9 3 3.5 2.1 2.1 3 4 3 6.2 0 2.2-0.8 4.1-2.2 5.5-1.3 1.2-3.5 2.4-5 2.7-1.6 0.3-2.8 0.8-2.8 1.1 0 0.3 1.1 1.9 2.5 3.5 1.5 1.8 2.3 3.7 1.9 4.7-0.3 1-1.1 2.5-1.7 3.4-0.7 0.9-3.2 2.6-5.7 3.9-3.7 1.8-6.3 2.2-14.3 2.4l-9.7 0.1c-2.2 7.7-3.6 11.4-4.4 13-0.8 1.6-1.3 3.3-1 3.7 0.2 0.5 22 0.8 48.4 0.8 26.4 0 48-0.3 48-0.8 0-0.4-1-2.7-2.4-5.2-1.3-2.5-2.7-6.2-3-8.3-0.4-2.7-0.3-3.6 0.7-3.4 0.6 0.2 0.9 0.2 0.5 0-0.5-0.1-0.6-0.7-0.3-1.3 0.3-0.6-0.5-0.4-1.7 0.4-1.5 0.8-6 1.4-12.3 1.6-6.2 0.1-11.7-0.3-14.4-1.2-2.5-0.7-5.6-2.7-7.2-4.6-1.6-1.7-2.9-4.3-2.9-5.7 0-1.4 0.7-3.2 1.5-4 0.8-0.8 1.5-1.9 1.5-2.5 0-0.6-0.4-1-1-1-0.6 0-2.1-1.2-3.4-2.8-2-2.1-2.4-3.5-2.1-6.7 0.3-2.4 1.3-4.7 2.5-5.8 2-1.7 2-1.7-0.5-4.2-1.4-1.4-2.5-3.6-2.5-5 0-1.4 0.4-3.6 1-5 0.6-1.6 2.2-2.9 4.5-3.5 1.9-0.6 3.5-1.2 3.5-1.5 0-0.3-0.9-1.5-2-2.8-1.3-1.4-2-3.6-2-6 0-3.1 0.5-4 3.3-5.7 2.7-1.7 4.6-2 12.1-1.8l8.9 0.3 0.2-14-62.5-0.5zm-25.1 110.8c-4.4 4.5-8.1 9.2-8.8 11.2-0.6 1.9-1.1 4.5-1.1 5.7v2.3h134c0-4.3-0.4-7.1-1-9-0.7-2.3-3.6-6.1-8.5-10.8l-7.5-7.2-99.5 0.1zm-15.4 27.9c-0.4 0.3-0.7 5.1-0.7 10.5 0.2 7.7 0.5 9.9 1.7 10.3 0.8 0.3 33.7 0.5 73 0.5h71.5v-22c-112.1 0-145 0.3-145.5 0.7z"/><path class="a" d="m168 153.3c-1.9 0.7-5 2.4-6.9 3.7-1.9 1.4-4.7 4.4-6.3 6.7-1.5 2.4-3.5 7.1-4.4 10.5-1.1 4.2-1.4 8.2-1 11.8 0.3 3 1.7 7.7 3 10.5 1.3 2.7 4.3 6.7 6.5 8.7 2.3 2.1 6 4.8 8.4 6 3.4 1.8 5.9 2.3 12.7 2.3 7.1 0 9.3-0.4 13.5-2.5 2.8-1.4 6.5-4.1 8.4-6 1.9-1.9 4.6-6 6-9 2.1-4.4 2.5-7 2.5-13.5 0-5.9-0.5-9.2-2-12.5-1.2-2.5-4.1-6.4-6.5-8.8-2.4-2.4-6.6-5.4-9.4-6.8-4.1-2-6.5-2.4-13-2.4-4.4 0.1-9.6 0.6-11.5 1.3zm-57 16.6c-1.4 0.4-3.6 1.5-5 2.4-1.4 0.8-3.3 3-4.3 4.9-1.1 1.8-1.7 4.4-1.5 5.8 0.2 2 0.9 2.5 3.6 2.7 2.3 0.2 3.4-0.2 3.9-1.5 0.3-0.9 1.3-2.5 2.2-3.5 1-1.1 3-1.7 5.1-1.7 1.9 0 4 0.4 4.6 0.8 0.6 0.4 1.9 2.2 2.8 3.9 1.3 2.6 2.1 3.2 4.2 3 1.5-0.1 3.2-1 3.8-2 0.9-1.3 0.6-2.7-1.4-6.4-1.6-3-3.7-5.3-6-6.4-1.9-0.9-4.8-2-6.5-2.2-1.7-0.3-4.1-0.2-5.5 0.2zm1 47.3c-0.8 0.7-1.3 2.2-1.2 3.5 0.1 1.3 1.4 3.2 3 4.4 1.5 1.1 3.8 1.9 5.2 1.7 2.1-0.3 2.5-0.8 2.5-3.9 0-1.9-0.7-4.3-1.5-5.3-0.8-0.9-2.6-1.7-4-1.6-1.5 0-3.2 0.5-4 1.2zm21.5 0.6c-1.7 1-3.5 3.1-4.2 4.7-0.6 1.8-0.8 3.6-0.2 4.5q0.8 1.5 4.6 1.3c2.1-0.2 4.9-1.1 6.3-2.1 1.5-1.1 2.6-3.1 2.8-4.8 0.2-1.9-0.4-3.3-1.5-4.1-1-0.7-2.5-1.2-3.3-1.3-0.8 0-2.8 0.8-4.5 1.8zm41 18.9c-0.5 0.3-0.8 1.2-0.7 2 0.1 0.7 1.2 1.3 2.5 1.3 1.2 0 3.2 0.2 4.5 0.5 1.3 0.3 2.2 1.2 2.2 2.2 0 1-3.6 5.3-8 9.5l-8 7.8h13c7-7.8 9-10.4 9-11 0-0.6 0.6-1 1.3-1 0.6 0 2 1.4 3 3 0.9 1.7 2.1 3 2.7 3 0.6 0 1.3-1 1.6-2.3 0.3-1.3-0.4-4-1.8-6.7-1.7-3.3-3.5-5.1-6.8-6.8-2.7-1.3-6.3-2.2-9.1-2.2-2.5 0-4.9 0.3-5.4 0.7z"/><path class="b" d="m68.8 161.1c-3.2 0.5-7.3 1.9-9 3.1-1.8 1.2-4.4 3.1-5.7 4.2-1.3 1.2-3.4 4.4-4.7 7.1-1.6 3.4-2.4 6.8-2.4 10.8 0 3.6 0.7 7.4 2 10.2 1.1 2.5 3.9 6.4 6.3 8.8 2.6 2.7 6.1 5 9.2 6 2.8 1 6.3 1.7 8 1.7h3c-1.9-12.8-2.4-21.2-2.4-27 0-5.8 0.6-13.2 1.4-16.5 0.8-3.3 1.5-6.8 1.5-7.7 0-1-0.3-1.7-0.7-1.7-0.5 0.1-3.4 0.5-6.5 1zm209.5 10.5c-2.1 0.4-2.3 0.9-2.3 7.7 0 3.9-0.7 13.5-1.5 21.2-0.8 7.7-1.6 15.9-1.9 18.3-0.6 4.2-0.6 4.2 3.2 5.2 2 0.5 5.5 1 7.7 1 2.2 0 6.5-0.7 9.5-1.7 4.1-1.3 6.9-3.1 10.8-7 2.8-2.9 5.9-6.9 6.7-8.8 0.9-2 1.5-6.4 1.5-10.2 0-4.3-0.7-8.3-1.8-10.8-1-2.2-3.4-5.6-5.3-7.6-1.9-2-5-4.5-6.9-5.6-2.6-1.5-5.3-2-10.5-2.1-3.9 0-8 0.2-9.2 0.4z"/><path class="c" d="m169 261c1.2 0.8 1.1 1-0.8 1-1.9 0-2 0.2-0.7 1.5 0.8 0.8 2.7 1.5 4.3 1.5 2.1 0.1 2.5-0.2 1.5-1.2-0.9-1-0.7-1.3 0.5-1.2 1 0.1 3 0.7 4.7 1.3 1.7 0.7 3.8 1.7 4.8 2.2 1.4 0.8 1.7 0.5 1.5-1.6-0.2-1.7-1-2.7-2.3-3-1.1-0.2-4.9-0.6-8.5-0.9-4.4-0.4-6-0.3-5 0.4zm35.8 10.8c-0.4 2-0.3 4.4 0.1 5.2 0.7 1.3 0.9 1.3 1.7 0 0.4-0.8 0.7-2.9 0.6-4.5-0.2-1.6-0.6-3.3-1-3.7-0.4-0.4-1 0.9-1.4 3zm-21.2-1.9c-0.3 0.5-0.5 2.4-0.6 4.2 0 1.9-0.1 5.1 0 7.1 0 3.4 0.2 3.7 2.3 3.2 1.2-0.4 3.1-0.1 4.2 0.6 1.4 0.8 4.5 1 9.8 0.6 4.8-0.4 7.9-1.1 8.1-1.9 0.2-0.6 0.1-1.9-0.4-2.7-0.4-0.8-1.2-1.2-1.6-0.8-0.5 0.3-5 0.8-9.9 0.9-4.9 0.2-9.6 0-10.2-0.4-0.9-0.5-1.2-2.5-0.9-6.2 0.2-3 0.3-5.5 0.1-5.5-0.2 0-0.6 0.4-0.9 0.9z"/><path class="d" d="m164.6 45.7c-3.9 2.1-4.9 3.1-4.8 5 0.1 1.3-0.2 2.5-0.8 2.8-0.6 0.3-1.2 0-1.5-0.5-0.3-0.5-1.7-1-3.1-1-1.4 0-3.1 0.8-3.8 1.7-0.7 1-1.6 2.7-1.9 3.8-0.3 1.1 0.1 3 0.9 4.2 1 1.7 2.2 2.2 4.6 2 2.2-0.1 3.3 0.3 3.6 1.3 0.2 0.8-0.8 2.1-2.2 2.7-1.8 0.9-2.6 2.1-2.6 3.8 0 1.4 0.7 4.2 1.5 6.2 0.8 2.1 3.1 5.1 5.2 6.7 2.1 1.7 5.3 3.6 7.1 4.3 1.7 0.7 5.1 1.3 7.5 1.3 2.5 0 6-0.9 8.7-2.3 4.2-2.2 4.5-2.6 4.5-6.6 0-2.6 0.5-4.5 1.5-5.1q1.5-0.9 3 0.5c0.8 0.8 2.4 1.5 3.5 1.5 1.1 0 2.8-0.7 3.7-1.7 1-1 1.8-3 1.8-4.6 0-1.5-0.8-3.4-1.7-4.3-1-0.9-2.6-1.3-3.5-1-1.6 0.5-1.7 0.1-1.2-4.7 0.5-3.7 0.2-6.1-0.9-8.2-0.8-1.7-2.6-4-3.9-5.2-1.2-1.2-4-2.9-6-3.7-2.1-0.9-6.2-1.6-9-1.6-3.8 0-6.7 0.8-10.2 2.7zm11.8 110.9c-0.5 0.1-2.2 0.5-3.8 0.8-2.6 0.6-2.8 1-2.7 4.6l0.1 4h11c-0.2-7.6-0.7-8.9-2-9.2-0.9-0.3-2.1-0.4-2.6-0.2zm-19.8 12.6c-0.8 1.8-1.7 6-2 9.3-0.3 3.4-0.2 4.9 0.2 3.5 0.6-1.8 1.4-2.5 3.2-2.4 1.4 0.1 4.2 0.2 6.3 0.3l3.7 0.1-0.5 12.5c-8.7 0.4-10.5 0.9-10.5 1.7 0 0.7 0.8 2.6 1.8 4.3 1 1.6 3.5 4 5.5 5.2l3.7 2.3v-12l12.5-0.5 0.5-13.5h14v14l10.5-0.5c1.8-10.6 1.7-11.8 0.5-12.5-0.8-0.6-3.6-1-6.2-1h-4.8c0-11.4-0.4-13.1-1.5-13.5-0.8-0.3-3.3-0.5-5.5-0.5-2.2 0-4.7 0.2-5.5 0.5-1.1 0.4-1.5 2.1-1.5 7v6.5h-13v-14c-9.8 0-10.2 0.2-11.4 3.2zm24.4 31.8v7c8.4-0.4 11.3-1 11.9-1.5 0.5-0.6 1.2-2.9 1.5-5.3 0.3-2.3 0.4-4.9 0.1-5.7-0.4-1.1-2.1-1.5-7-1.5h-6.5z"/></svg>